<?xml version="1.0" encoding="UTF-8"?>
<!DOCTYPE svg PUBLIC "-//W3C//DTD SVG 1.1//EN" "http://www.w3.org/Graphics/SVG/1.1/DTD/svg11.dtd">
<svg xmlns="http://www.w3.org/2000/svg" version="1.1" width="335px" height="338px" style="shape-rendering:geometricPrecision; text-rendering:geometricPrecision; image-rendering:optimizeQuality; fill-rule:evenodd; clip-rule:evenodd" xmlns:xlink="http://www.w3.org/1999/xlink">
<g><path style="opacity:1" fill="#759c82" d="M 251.5,3.5 C 249.833,3.5 248.167,3.5 246.5,3.5C 188.155,3.20288 129.822,3.53622 71.5,4.5C 73.9686,3.6829 76.6353,3.1829 79.5,3C 137.001,2.16812 194.335,2.33479 251.5,3.5 Z"/></g>
<g><path style="opacity:1" fill="#256538" d="M 246.5,3.5 C 246.5,3.83333 246.5,4.16667 246.5,4.5C 244.167,4.5 241.833,4.5 239.5,4.5C 225.5,4.5 211.5,4.5 197.5,4.5C 184.496,4.33344 171.496,4.50011 158.5,5C 162.483,7.27527 162.483,8.27527 158.5,8C 159.174,9.75064 159.507,11.4173 159.5,13C 158.069,13.4652 156.903,14.2986 156,15.5C 154.343,11.6391 152.843,11.6391 151.5,15.5C 152.629,17.5294 152.129,17.8627 150,16.5C 149.333,17.8333 148.667,19.1667 148,20.5C 146.421,19.2004 145.255,19.5337 144.5,21.5C 144.167,21.5 143.833,21.5 143.5,21.5C 142.538,19.0144 141.705,19.0144 141,21.5C 140.333,18.8333 139.667,18.8333 139,21.5C 138.667,20.5 138.333,19.5 138,18.5C 135.765,19.2393 133.765,19.2393 132,18.5C 131.333,20.5 130.667,22.5 130,24.5C 129.333,23.8333 128.667,23.1667 128,22.5C 127.879,24.7271 127.046,26.5604 125.5,28C 126.624,28.2492 127.624,28.7492 128.5,29.5C 127.738,29.9106 126.738,30.0773 125.5,30C 127.146,33.8569 129.479,34.6903 132.5,32.5C 132.833,32.8333 133.167,33.1667 133.5,33.5C 131.632,36.5872 131.632,39.4205 133.5,42C 133.046,44.0364 132.213,45.8697 131,47.5C 130.667,46.8333 130.333,46.1667 130,45.5C 129.107,46.7112 128.274,46.7112 127.5,45.5C 128.83,42.1512 128.33,41.8179 126,44.5C 126.932,46.8616 126.432,49.0282 124.5,51C 128.097,51.8643 127.93,53.0309 124,54.5C 120.013,52.4794 119.18,49.8128 121.5,46.5C 120.833,45.8333 120.167,45.1667 119.5,44.5C 120.833,43.5 122.167,42.5 123.5,41.5C 121.934,42.0606 120.601,41.3939 119.5,39.5C 120.074,37.9411 120.74,36.4411 121.5,35C 119.983,33.2215 119.149,33.7215 119,36.5C 118.667,35.8333 118.333,35.1667 118,34.5C 117.667,36.5 117.333,38.5 117,40.5C 116.086,39.3463 115.253,39.513 114.5,41C 118.272,42.3893 118.272,43.3893 114.5,44C 115.711,45.1131 115.711,46.2798 114.5,47.5C 114.977,48.4776 115.643,49.3109 116.5,50C 114.545,52.1684 113.879,54.5017 114.5,57C 113.551,57.6172 112.718,57.4506 112,56.5C 112.077,57.7376 111.911,58.7376 111.5,59.5C 110.914,59.2907 110.414,58.9574 110,58.5C 108.354,60.0548 108.021,61.7215 109,63.5C 108.086,62.3463 107.253,62.513 106.5,64C 107.022,64.5613 107.355,65.228 107.5,66C 106.283,68.368 105.449,70.868 105,73.5C 104.259,72.3595 103.425,72.3595 102.5,73.5C 100.774,75.2279 99.4411,77.2279 98.5,79.5C 99.2537,82.777 99.7537,86.1103 100,89.5C 101.558,90.3452 102.558,89.6785 103,87.5C 103.374,88.4162 103.874,89.2496 104.5,90C 103.712,93.0757 103.212,96.2423 103,99.5C 102.667,98.1667 102.333,96.8333 102,95.5C 100.846,97.9574 99.5123,97.9574 98,95.5C 97.6667,96.1667 97.3333,96.8333 97,97.5C 96,96.5 95,95.5 94,94.5C 93.5814,95.6721 92.9147,96.6721 92,97.5C 91.6605,100.978 92.1605,104.312 93.5,107.5C 92.2915,110.321 92.7915,112.321 95,113.5C 96.1178,115.765 96.9512,118.099 97.5,120.5C 95.1021,131.437 92.1021,142.103 88.5,152.5C 87.8826,152.611 87.3826,152.944 87,153.5C 86.5045,155.473 86.3379,157.473 86.5,159.5C 86.7373,160.791 86.404,161.791 85.5,162.5C 82.4715,166.591 81.1382,171.257 81.5,176.5C 78.7057,187.55 75.7057,198.55 72.5,209.5C 70.7868,210.635 70.1201,212.302 70.5,214.5C 70.5,214.833 70.5,215.167 70.5,215.5C 69.8826,215.389 69.3826,215.056 69,214.5C 67.8924,218.086 67.3924,221.753 67.5,225.5C 67.5905,228.152 66.9238,230.485 65.5,232.5C 64.0689,232.881 63.2355,233.881 63,235.5C 62.5034,237.81 62.3367,240.143 62.5,242.5C 61.9448,246.397 60.9448,250.063 59.5,253.5C 58.9569,253.56 58.6236,253.893 58.5,254.5C 60.7765,255.421 63.1099,256.087 65.5,256.5C 67.0281,256.517 67.5281,257.184 67,258.5C 65.9887,259.337 64.8221,259.67 63.5,259.5C 63.3921,261.783 62.5588,263.783 61,265.5C 59.8403,263.203 58.8403,263.536 58,266.5C 57.6667,268.833 57.3333,271.167 57,273.5C 54.9604,269.356 52.4604,268.856 49.5,272C 50.6667,272.5 51.5,273.333 52,274.5C 52.3333,274.167 52.6667,273.833 53,273.5C 53.7203,275.112 53.5536,276.612 52.5,278C 54.0174,279.779 54.8508,279.279 55,276.5C 56.8273,276.806 57.994,278.306 58.5,281C 57.3966,282.68 57.7299,284.18 59.5,285.5C 58.6195,286.971 57.2861,287.804 55.5,288C 58.1494,290.437 57.4828,291.77 53.5,292C 55.5922,292.953 55.9255,294.286 54.5,296C 55.1258,296.75 55.6258,297.584 56,298.5C 56.3333,298.167 56.6667,297.833 57,297.5C 57.6667,298.833 57.6667,300.167 57,301.5C 56.3457,300.304 55.8457,300.304 55.5,301.5C 56.8114,302.258 57.3114,303.258 57,304.5C 55.3333,303.167 53.6667,301.833 52,300.5C 49.6999,302.948 48.3665,302.281 48,298.5C 47.3333,299.833 46.6667,299.833 46,298.5C 46.9791,300.279 46.6458,301.945 45,303.5C 44.9109,300.151 43.7443,299.651 41.5,302C 42.2797,303.073 42.113,304.24 41,305.5C 40.3333,302.833 39.6667,302.833 39,305.5C 37.3333,304.5 35.6667,303.5 34,302.5C 33.5811,306.852 32.9145,307.185 32,303.5C 31.3333,306.167 30.6667,306.167 30,303.5C 29.6667,304.167 29.3333,304.833 29,305.5C 28.3654,301.898 27.032,301.232 25,303.5C 23.1476,301.77 23.3143,300.604 25.5,300C 22.8333,299.333 22.8333,298.667 25.5,298C 23.481,297.55 21.6477,296.717 20,295.5C 18.984,296.634 18.3173,296.301 18,294.5C 17.0565,295.263 16.5565,296.263 16.5,297.5C 17.7997,300.432 19.7997,302.766 22.5,304.5C 21.8728,305.417 21.5394,306.417 21.5,307.5C 14.5234,300.555 9.85678,292.222 7.5,282.5C 7.42082,281.07 7.75415,279.736 8.5,278.5C 6.42539,274.911 4.75872,271.244 3.5,267.5C 2.74846,264.253 2.24846,260.919 2,257.5C 1.33333,198.167 1.33333,138.833 2,79.5C 2.29557,74.2721 3.12891,69.2721 4.5,64.5C 4.64456,69.035 5.47789,73.3683 7,77.5C 7.91471,76.6721 8.58138,75.6721 9,74.5C 9.49742,77.146 9.66409,79.8127 9.5,82.5C 11.451,82.2267 12.951,82.8934 14,84.5C 15.487,83.7471 15.6537,82.9138 14.5,82C 16.8695,80.7736 19.0362,79.9403 21,79.5C 21.3333,81.1667 21.6667,82.8333 22,84.5C 22.6667,83.1667 23.3333,83.1667 24,84.5C 24.5586,82.1405 25.8919,79.8072 28,77.5C 29.0809,79.622 29.7476,81.622 30,83.5C 30.3333,81.8333 30.6667,80.1667 31,78.5C 31.4186,79.6721 32.0853,80.6721 33,81.5C 33.3247,79.4473 32.9913,77.4473 32,75.5C 31.4444,77.5951 30.9444,77.7618 30.5,76C 33.7609,70.6513 32.5943,66.4846 27,63.5C 26.3333,58.5 26.3333,53.5 27,48.5C 27.3333,48.8333 27.6667,49.1667 28,49.5C 29.7146,47.2406 31.5479,45.0739 33.5,43C 32.4238,41.2739 32.2571,39.4406 33,37.5C 34.3264,35.017 35.4931,32.517 36.5,30C 36.2451,28.6739 35.5784,27.6739 34.5,27C 36.0589,26.0201 37.7256,25.1867 39.5,24.5C 38.4647,22.8716 38.4647,21.205 39.5,19.5C 40.5,19.5 41.5,19.5 42.5,19.5C 42.5,18.5 42.5,17.5 42.5,16.5C 40.0065,16.8693 39.3398,16.2027 40.5,14.5C 44.4047,11.7164 48.738,9.71637 53.5,8.5C 56.1522,8.59047 58.4855,7.92381 60.5,6.5C 63.9085,5.09659 67.5752,4.42993 71.5,4.5C 129.822,3.53622 188.155,3.20288 246.5,3.5 Z"/></g>
<g><path style="opacity:1" fill="#256a38" d="M 197.5,4.5 C 198.609,5.28997 199.942,5.78997 201.5,6C 200.167,7 198.833,8 197.5,9C 199.223,9.77507 200.223,11.1084 200.5,13C 199.401,17.1516 199.401,21.3182 200.5,25.5C 204.597,25.614 208.264,24.614 211.5,22.5C 216.487,23.4387 220.987,25.4387 225,28.5C 225.138,30.4324 224.638,32.2657 223.5,34C 224.022,34.5613 224.355,35.228 224.5,36C 223.491,37.1681 222.491,38.3348 221.5,39.5C 222.537,41.6815 223.87,41.6815 225.5,39.5C 228.734,41.2503 231.068,43.917 232.5,47.5C 231.5,48.8333 230.5,50.1667 229.5,51.5C 231.975,54.8672 231.809,57.8672 229,60.5C 228.667,59.8333 228.333,59.1667 228,58.5C 225.876,59.6217 224.043,61.1217 222.5,63C 216.086,63.129 209.753,63.7957 203.5,65C 206.084,66.9944 205.918,67.4944 203,66.5C 200.965,67.8491 198.798,68.6824 196.5,69C 171.5,69.6667 146.5,69.6667 121.5,69C 125.982,69.0631 130.148,68.2297 134,66.5C 134.333,66.8333 134.667,67.1667 135,67.5C 138.059,66.2581 141.059,64.9247 144,63.5C 146.86,64.8726 149.694,66.2059 152.5,67.5C 159.167,68.8333 165.833,68.8333 172.5,67.5C 171.975,66.8076 171.308,66.3076 170.5,66C 171.167,65.8333 171.833,65.6667 172.5,65.5C 173.863,66.1984 175.029,66.1984 176,65.5C 176.617,66.4491 176.451,67.2825 175.5,68C 182.861,69.2313 189.861,68.2313 196.5,65C 193.167,64.6667 189.833,64.3333 186.5,64C 184.909,61.2443 182.576,59.411 179.5,58.5C 173.704,59.8033 168.204,60.8033 163,61.5C 162.755,59.3367 161.755,57.67 160,56.5C 159.667,54.1667 159.333,51.8333 159,49.5C 157.667,48.1667 156.333,48.1667 155,49.5C 153.744,46.7961 153.578,43.7961 154.5,40.5C 156.821,40.2289 158.821,40.8955 160.5,42.5C 165.867,38.979 165.2,36.6456 158.5,35.5C 156.971,35.5288 155.804,36.1955 155,37.5C 154.5,36.5 154,35.5 153.5,34.5C 151.445,33.8128 149.779,32.6461 148.5,31C 149.573,29.7496 149.573,28.4162 148.5,27C 147.021,25.1805 145.687,23.3471 144.5,21.5C 145.255,19.5337 146.421,19.2004 148,20.5C 148.667,19.1667 149.333,17.8333 150,16.5C 152.129,17.8627 152.629,17.5294 151.5,15.5C 152.843,11.6391 154.343,11.6391 156,15.5C 156.903,14.2986 158.069,13.4652 159.5,13C 159.507,11.4173 159.174,9.75064 158.5,8C 162.483,8.27527 162.483,7.27527 158.5,5C 171.496,4.50011 184.496,4.33344 197.5,4.5 Z"/></g>
<g><path style="opacity:1" fill="#266a3e" d="M 246.5,3.5 C 248.167,3.5 249.833,3.5 251.5,3.5C 268.023,3.29744 283.357,7.4641 297.5,16C 301.612,18.7118 305.278,21.8784 308.5,25.5C 306.702,26.4629 305.368,25.7962 304.5,23.5C 303.859,25.2955 302.859,26.7955 301.5,28C 301.93,28.9195 302.264,29.7528 302.5,30.5C 303.82,28.7299 305.32,28.3966 307,29.5C 307.45,31.519 308.283,33.3523 309.5,35C 305.129,39.381 300.629,39.2143 296,34.5C 296.227,32.312 295.894,29.9787 295,27.5C 294,26.1667 293,26.1667 292,27.5C 291.361,24.8877 290.194,22.5543 288.5,20.5C 285.207,20.6953 281.874,20.6953 278.5,20.5C 277.019,21.4803 275.685,22.647 274.5,24C 276.081,24.7065 277.581,25.5399 279,26.5C 279.63,30.9627 282.13,33.6294 286.5,34.5C 285.975,35.1924 285.308,35.6924 284.5,36C 286.536,38.5002 286.87,41.1669 285.5,44C 290.469,45.9844 295.302,48.1511 300,50.5C 300.667,52.8333 300.667,55.1667 300,57.5C 297.554,59.0615 295.554,61.0615 294,63.5C 292.237,63.9755 290.57,64.6422 289,65.5C 284.659,62.3639 281.826,58.3639 280.5,53.5C 280.851,50.9109 281.518,48.4109 282.5,46C 282.333,45.1667 282.167,44.3333 282,43.5C 280.853,44.4581 279.853,44.1247 279,42.5C 276.867,43.2551 275.2,44.5884 274,46.5C 269.837,47.879 265.337,49.5457 260.5,51.5C 258.712,53.5765 257.046,55.7432 255.5,58C 252.344,57.9474 249.844,59.1141 248,61.5C 247.333,62.5 247.333,63.5 248,64.5C 249.785,65.2401 251.618,65.9067 253.5,66.5C 254.205,68.6721 255.205,70.6721 256.5,72.5C 260.742,74.0898 264.742,76.0898 268.5,78.5C 269.906,79.9507 271.406,81.2841 273,82.5C 274.825,81.4291 275.992,82.0958 276.5,84.5C 277.325,85.3857 278.325,85.719 279.5,85.5C 280.353,88.2619 280.353,90.9285 279.5,93.5C 279.342,95.3186 280.009,96.6519 281.5,97.5C 287.994,95.3796 294.661,92.8796 301.5,90C 304.082,85.3838 306.748,80.8838 309.5,76.5C 307.506,71.4102 308.506,67.0768 312.5,63.5C 313.086,63.7093 313.586,64.0426 314,64.5C 314.697,68.5351 314.53,72.5351 313.5,76.5C 315.261,79.9959 315.761,83.6626 315,87.5C 310.759,88.7504 306.592,90.2504 302.5,92C 305.296,93.4186 307.296,95.5853 308.5,98.5C 308.928,103.002 308.261,107.502 306.5,112C 306.299,115.224 306.633,118.557 307.5,122C 304.812,126.895 301.312,131.062 297,134.5C 295.204,133.233 293.371,133.233 291.5,134.5C 288.22,136.431 285.886,139.098 284.5,142.5C 284.709,143.994 285.376,145.161 286.5,146C 284.125,150.271 283.959,154.771 286,159.5C 289.578,160.801 292.412,162.135 294.5,163.5C 294.666,167.846 294.499,172.179 294,176.5C 292.333,177.833 290.667,179.167 289,180.5C 288.909,185.136 287.742,189.636 285.5,194C 285.957,194.414 286.291,194.914 286.5,195.5C 285.352,197.149 284.019,198.649 282.5,200C 284.329,201.113 285.163,202.613 285,204.5C 282.112,203.909 279.446,202.909 277,201.5C 275.667,202.167 274.667,203.167 274,204.5C 271.838,204.06 269.671,203.727 267.5,203.5C 263.495,203.653 260.162,205.153 257.5,208C 257.833,208.333 258.167,208.667 258.5,209C 255.27,210.724 254.936,212.724 257.5,215C 252.137,217.894 248.137,216.727 245.5,211.5C 239.41,210.74 238.077,213.073 241.5,218.5C 241.245,220.343 241.078,222.343 241,224.5C 239.045,226.911 237.211,229.411 235.5,232C 235.064,236.422 235.064,240.589 235.5,244.5C 230.815,244.569 226.815,243.069 223.5,240C 220.5,239.333 217.5,239.333 214.5,240C 213.5,241.667 212.5,243.333 211.5,245C 212.167,245.333 212.833,245.667 213.5,246C 212.324,248.765 210.824,250.598 209,251.5C 206.101,248.733 204.101,249.4 203,253.5C 201.286,252.075 199.953,252.408 199,254.5C 197.981,253.313 196.814,252.313 195.5,251.5C 194.5,252.833 193.5,254.167 192.5,255.5C 191.571,254.311 191.238,252.978 191.5,251.5C 187.652,251.689 183.985,251.689 180.5,251.5C 178.902,253.973 177.402,253.973 176,251.5C 171.862,252.943 167.696,254.443 163.5,256C 165.074,256.353 166.741,257.02 168.5,258C 165.305,258.181 162.305,258.681 159.5,259.5C 143.574,259.665 127.908,258.998 112.5,257.5C 111.914,257.709 111.414,258.043 111,258.5C 103.112,257.434 94.9457,256.101 86.5,254.5C 86.4568,250.107 86.9568,249.774 88,253.5C 88.1667,252.667 88.3333,251.833 88.5,251C 87.6781,248.528 87.0114,246.028 86.5,243.5C 84.4588,243.146 82.6255,243.146 81,243.5C 80.5983,244.872 80.0983,246.205 79.5,247.5C 80.0016,248.716 80.3349,249.883 80.5,251C 79.2559,251.456 78.4226,250.956 78,249.5C 77.059,251.061 75.8924,252.395 74.5,253.5C 73.3526,255.765 73.1859,258.098 74,260.5C 74.5556,258.405 75.0556,258.238 75.5,260C 75.0496,261.285 74.3829,262.452 73.5,263.5C 75.3749,264.54 76.7082,266.04 77.5,268C 77.1537,271.76 76.6537,275.593 76,279.5C 76.3173,277.699 76.984,277.366 78,278.5C 79.2022,276.447 79.5356,274.447 79,272.5C 80.1475,273.458 81.1475,273.125 82,271.5C 83.563,272.725 84.7297,274.225 85.5,276C 85.1081,277.011 84.4415,277.511 83.5,277.5C 84.1667,278.5 84.8333,279.5 85.5,280.5C 82.9518,284.263 80.9518,288.263 79.5,292.5C 81.856,295.022 84.0227,297.688 86,300.5C 86.7096,299.027 87.8762,298.36 89.5,298.5C 89.9804,301.685 89.3137,304.519 87.5,307C 87.5,308.667 87.5,310.333 87.5,312C 89.6324,312.918 90.299,314.251 89.5,316C 92.3644,315.986 95.031,315.82 97.5,315.5C 100.133,317.368 103.466,318.368 107.5,318.5C 107.227,320.451 107.893,321.951 109.5,323C 109.167,324 108.833,325 108.5,326C 112.002,328.011 112.002,329.344 108.5,330C 109.167,330.333 109.833,330.667 110.5,331C 122.943,332.144 135.61,332.644 148.5,332.5C 159.167,332.5 169.833,332.5 180.5,332.5C 183.713,332.19 186.713,332.523 189.5,333.5C 152.167,333.5 114.833,333.5 77.5,333.5C 71.5109,333.633 65.8443,332.633 60.5,330.5C 58.4855,329.076 56.1522,328.41 53.5,328.5C 50.0884,327.925 47.0884,326.592 44.5,324.5C 47.5341,324.391 48.5341,323.057 47.5,320.5C 49.8787,319.154 51.212,317.487 51.5,315.5C 54.1045,315.41 56.7712,316.077 59.5,317.5C 60.086,317.291 60.586,316.957 61,316.5C 61.4186,317.672 62.0853,318.672 63,319.5C 65.0095,318.167 66.6761,316.5 68,314.5C 68.918,316.632 70.2513,317.299 72,316.5C 72.3333,317.833 72.6667,319.167 73,320.5C 75.5094,318.282 76.0094,315.616 74.5,312.5C 73.8333,313.167 73.1667,313.833 72.5,314.5C 70.509,312.389 68.509,311.056 66.5,310.5C 67.5627,308.179 69.0627,307.179 71,307.5C 71.3333,306.5 71.6667,305.5 72,304.5C 73.8783,305.557 75.545,305.557 77,304.5C 78.0641,300.585 76.5641,298.418 72.5,298C 74.2781,295.778 74.4447,293.612 73,291.5C 72.5348,292.931 71.7014,294.097 70.5,295C 71.6091,296.813 70.9424,297.646 68.5,297.5C 68.4332,295.599 68.7665,293.766 69.5,292C 68.4403,286.684 67.7737,281.518 67.5,276.5C 67.637,274.893 68.3036,273.559 69.5,272.5C 70.1924,273.025 70.6924,273.692 71,274.5C 71.1629,272.324 71.9963,270.491 73.5,269C 72.5336,266.901 71.2003,265.068 69.5,263.5C 70.4415,263.511 71.1081,263.011 71.5,262C 70.0143,261.749 69.0143,260.415 68.5,258C 69.3279,257.085 70.3279,256.419 71.5,256C 69.2884,255.211 67.2884,255.378 65.5,256.5C 63.1099,256.087 60.7765,255.421 58.5,254.5C 58.6236,253.893 58.9569,253.56 59.5,253.5C 60.9187,254.451 62.5853,254.784 64.5,254.5C 67.0101,254.946 69.0101,254.28 70.5,252.5C 77.5061,245.658 84.0061,238.325 90,230.5C 93.6668,227.664 97.1668,224.664 100.5,221.5C 102.371,221.141 103.871,220.141 105,218.5C 104.915,224.884 108.081,227.717 114.5,227C 122.079,223.348 127.579,217.848 131,210.5C 131.333,210.833 131.667,211.167 132,211.5C 135.32,210.034 137.654,207.701 139,204.5C 142.313,204.756 145.479,205.423 148.5,206.5C 153.208,204.897 157.874,203.23 162.5,201.5C 166.022,203.402 169.522,205.402 173,207.5C 176.167,206.333 179.333,205.167 182.5,204C 183.22,201.878 184.387,201.378 186,202.5C 187.085,201.707 188.252,201.04 189.5,200.5C 189.703,197.113 190.87,193.78 193,190.5C 194.716,191.552 195.716,190.886 196,188.5C 198.23,189.489 200.064,188.822 201.5,186.5C 202.799,187.09 203.632,188.09 204,189.5C 204.414,189.043 204.914,188.709 205.5,188.5C 209.532,191.118 213.699,193.451 218,195.5C 218.333,195.167 218.667,194.833 219,194.5C 219.333,195.5 219.667,196.5 220,197.5C 220.684,195.641 221.684,193.974 223,192.5C 224.556,191.636 226.389,191.636 228.5,192.5C 229.959,190.417 231.292,188.25 232.5,186C 244.556,182.804 251.223,175.304 252.5,163.5C 254.283,159.339 257.283,156.339 261.5,154.5C 262.598,155.615 263.765,155.615 265,154.5C 270.026,151.307 272.526,146.64 272.5,140.5C 271.953,136.936 271.286,133.436 270.5,130C 270.69,126.142 271.357,122.142 272.5,118C 272.857,113.452 271.023,111.952 267,113.5C 266.667,112.833 266.333,112.167 266,111.5C 265.581,115.852 264.914,116.185 264,112.5C 263.333,116.5 263.333,120.5 264,124.5C 264.649,121.063 265.149,120.896 265.5,124C 265.333,124.833 265.167,125.667 265,126.5C 264.107,125.289 263.274,125.289 262.5,126.5C 263.52,128.432 263.687,130.432 263,132.5C 262.667,132.167 262.333,131.833 262,131.5C 263.219,140.073 260.052,146.073 252.5,149.5C 260.699,135.446 263.032,120.446 259.5,104.5C 260.15,104.804 260.817,105.137 261.5,105.5C 262.672,102.964 263.672,100.464 264.5,98C 266.659,97.088 268.825,96.2546 271,95.5C 270.886,91.1579 269.553,87.1579 267,83.5C 266.667,83.8333 266.333,84.1667 266,84.5C 262.316,81.6073 258.316,79.2739 254,77.5C 253.667,78.8333 253.333,80.1667 253,81.5C 251.286,80.0745 249.953,80.4078 249,82.5C 248.06,78.6379 246.56,74.9712 244.5,71.5C 245.5,70.6667 246.5,69.8333 247.5,69C 244.574,67.2886 241.741,65.4553 239,63.5C 238.228,63.6448 237.561,63.9781 237,64.5C 234,63.8333 231,63.1667 228,62.5C 225.266,63.3617 225.099,64.195 227.5,65C 224.654,65.3931 222.154,65.2264 220,64.5C 218.881,65.5521 218.381,66.7188 218.5,68C 220.881,69.7656 223.548,70.9322 226.5,71.5C 227.298,71.9569 227.631,72.6236 227.5,73.5C 223.779,73.0889 220.112,72.4222 216.5,71.5C 181.671,70.5016 146.671,70.1683 111.5,70.5C 113.604,67.8538 115.271,64.8538 116.5,61.5C 117.554,64.8075 119.72,65.1408 123,62.5C 124.533,62.9437 126.033,63.277 127.5,63.5C 129.13,62.102 130.964,61.102 133,60.5C 134.316,63.028 135.483,63.028 136.5,60.5C 137.446,60.9867 138.446,61.3201 139.5,61.5C 142.552,60.4374 145.385,59.104 148,57.5C 148.483,58.448 148.649,59.448 148.5,60.5C 149.5,60.5 150.5,60.5 151.5,60.5C 151.859,58.2341 151.192,56.4007 149.5,55C 149.833,54.6667 150.167,54.3333 150.5,54C 147.953,53.4478 145.953,52.1144 144.5,50C 145.253,48.513 146.086,48.3463 147,49.5C 147.667,48.5 147.667,47.5 147,46.5C 146.667,46.8333 146.333,47.1667 146,47.5C 140.389,43.5657 140.222,39.5657 145.5,35.5C 144.019,34.5197 142.685,33.353 141.5,32C 144.528,29.9922 145.528,27.4922 144.5,24.5C 140.995,24.3059 140.662,23.3059 143.5,21.5C 143.833,21.5 144.167,21.5 144.5,21.5C 145.687,23.3471 147.021,25.1805 148.5,27C 149.573,28.4162 149.573,29.7496 148.5,31C 149.779,32.6461 151.445,33.8128 153.5,34.5C 154,35.5 154.5,36.5 155,37.5C 155.804,36.1955 156.971,35.5288 158.5,35.5C 165.2,36.6456 165.867,38.979 160.5,42.5C 158.821,40.8955 156.821,40.2289 154.5,40.5C 153.578,43.7961 153.744,46.7961 155,49.5C 156.333,48.1667 157.667,48.1667 159,49.5C 159.333,51.8333 159.667,54.1667 160,56.5C 161.755,57.67 162.755,59.3367 163,61.5C 168.204,60.8033 173.704,59.8033 179.5,58.5C 182.576,59.411 184.909,61.2443 186.5,64C 189.833,64.3333 193.167,64.6667 196.5,65C 189.861,68.2313 182.861,69.2313 175.5,68C 176.451,67.2825 176.617,66.4491 176,65.5C 175.029,66.1984 173.863,66.1984 172.5,65.5C 171.833,65.6667 171.167,65.8333 170.5,66C 171.308,66.3076 171.975,66.8076 172.5,67.5C 165.833,68.8333 159.167,68.8333 152.5,67.5C 149.694,66.2059 146.86,64.8726 144,63.5C 141.059,64.9247 138.059,66.2581 135,67.5C 134.667,67.1667 134.333,66.8333 134,66.5C 130.148,68.2297 125.982,69.0631 121.5,69C 146.5,69.6667 171.5,69.6667 196.5,69C 198.798,68.6824 200.965,67.8491 203,66.5C 205.918,67.4944 206.084,66.9944 203.5,65C 209.753,63.7957 216.086,63.129 222.5,63C 224.043,61.1217 225.876,59.6217 228,58.5C 228.333,59.1667 228.667,59.8333 229,60.5C 231.809,57.8672 231.975,54.8672 229.5,51.5C 230.5,50.1667 231.5,48.8333 232.5,47.5C 231.068,43.917 228.734,41.2503 225.5,39.5C 223.87,41.6815 222.537,41.6815 221.5,39.5C 222.491,38.3348 223.491,37.1681 224.5,36C 224.355,35.228 224.022,34.5613 223.5,34C 224.638,32.2657 225.138,30.4324 225,28.5C 220.987,25.4387 216.487,23.4387 211.5,22.5C 208.264,24.614 204.597,25.614 200.5,25.5C 199.401,21.3182 199.401,17.1516 200.5,13C 200.223,11.1084 199.223,9.77507 197.5,9C 198.833,8 200.167,7 201.5,6C 199.942,5.78997 198.609,5.28997 197.5,4.5C 211.5,4.5 225.5,4.5 239.5,4.5C 231.677,5.32923 223.677,5.82923 215.5,6C 217.848,6.34588 219.681,7.51255 221,9.5C 221.333,9.16667 221.667,8.83333 222,8.5C 224.069,9.26378 226.236,9.76378 228.5,10C 225.21,10.2532 222.21,11.2532 219.5,13C 220.5,13.8333 221.5,14.6667 222.5,15.5C 227.317,16.3041 232.15,16.9707 237,17.5C 240.085,16.5133 243.085,16.8466 246,18.5C 246.996,16.256 248.496,14.4227 250.5,13C 247.477,10.6935 246.144,7.86014 246.5,4.5C 246.5,4.16667 246.5,3.83333 246.5,3.5 Z"/></g>
<g><path style="opacity:1" fill="#256a38" d="M 239.5,4.5 C 241.833,4.5 244.167,4.5 246.5,4.5C 246.144,7.86014 247.477,10.6935 250.5,13C 248.496,14.4227 246.996,16.256 246,18.5C 243.085,16.8466 240.085,16.5133 237,17.5C 232.15,16.9707 227.317,16.3041 222.5,15.5C 221.5,14.6667 220.5,13.8333 219.5,13C 222.21,11.2532 225.21,10.2532 228.5,10C 226.236,9.76378 224.069,9.26378 222,8.5C 221.667,8.83333 221.333,9.16667 221,9.5C 219.681,7.51255 217.848,6.34588 215.5,6C 223.677,5.82923 231.677,5.32923 239.5,4.5 Z"/></g>
<g><path style="opacity:1" fill="#6d977d" d="M 60.5,6.5 C 58.4855,7.92381 56.1522,8.59047 53.5,8.5C 55.5145,7.07619 57.8478,6.40953 60.5,6.5 Z"/></g>
<g><path style="opacity:1" fill="#246938" d="M 39.5,19.5 C 38.4647,21.205 38.4647,22.8716 39.5,24.5C 37.7256,25.1867 36.0589,26.0201 34.5,27C 35.5784,27.6739 36.2451,28.6739 36.5,30C 35.4931,32.517 34.3264,35.017 33,37.5C 32.2571,39.4406 32.4238,41.2739 33.5,43C 31.5479,45.0739 29.7146,47.2406 28,49.5C 27.6667,49.1667 27.3333,48.8333 27,48.5C 26.3333,53.5 26.3333,58.5 27,63.5C 32.5943,66.4846 33.7609,70.6513 30.5,76C 30.9444,77.7618 31.4444,77.5951 32,75.5C 32.9913,77.4473 33.3247,79.4473 33,81.5C 32.0853,80.6721 31.4186,79.6721 31,78.5C 30.6667,80.1667 30.3333,81.8333 30,83.5C 29.7476,81.622 29.0809,79.622 28,77.5C 25.8919,79.8072 24.5586,82.1405 24,84.5C 23.3333,83.1667 22.6667,83.1667 22,84.5C 21.6667,82.8333 21.3333,81.1667 21,79.5C 19.0362,79.9403 16.8695,80.7736 14.5,82C 15.6537,82.9138 15.487,83.7471 14,84.5C 12.951,82.8934 11.451,82.2267 9.5,82.5C 9.66409,79.8127 9.49742,77.146 9,74.5C 8.58138,75.6721 7.91471,76.6721 7,77.5C 5.47789,73.3683 4.64456,69.035 4.5,64.5C 5.45837,64.0472 6.2917,63.3805 7,62.5C 7.66667,63.8333 8.66667,64.8333 10,65.5C 11.1965,62.9109 12.1965,60.2442 13,57.5C 13.6667,58.8333 14.3333,58.8333 15,57.5C 15.3228,60.1415 16.3228,62.4748 18,64.5C 18.121,62.2729 18.9544,60.4396 20.5,59C 18.1499,56.6272 17.9833,54.1272 20,51.5C 20.3333,51.8333 20.6667,52.1667 21,52.5C 22.214,50.9512 23.714,49.7845 25.5,49C 24.8333,48.6667 24.1667,48.3333 23.5,48C 25.2269,41.8007 27.5602,35.8007 30.5,30C 27.8333,29.3333 27.8333,28.6667 30.5,28C 30.0426,27.586 29.7093,27.086 29.5,26.5C 32.6435,23.8552 35.9768,21.5219 39.5,19.5 Z"/></g>
<g><path style="opacity:1" fill="#276b3a" d="M 143.5,21.5 C 140.662,23.3059 140.995,24.3059 144.5,24.5C 145.528,27.4922 144.528,29.9922 141.5,32C 142.685,33.353 144.019,34.5197 145.5,35.5C 140.222,39.5657 140.389,43.5657 146,47.5C 146.333,47.1667 146.667,46.8333 147,46.5C 147.667,47.5 147.667,48.5 147,49.5C 146.086,48.3463 145.253,48.513 144.5,50C 145.953,52.1144 147.953,53.4478 150.5,54C 150.167,54.3333 149.833,54.6667 149.5,55C 151.192,56.4007 151.859,58.2341 151.5,60.5C 150.5,60.5 149.5,60.5 148.5,60.5C 148.649,59.448 148.483,58.448 148,57.5C 145.385,59.104 142.552,60.4374 139.5,61.5C 138.446,61.3201 137.446,60.9867 136.5,60.5C 135.483,63.028 134.316,63.028 133,60.5C 130.964,61.102 129.13,62.102 127.5,63.5C 126.033,63.277 124.533,62.9437 123,62.5C 119.72,65.1408 117.554,64.8075 116.5,61.5C 115.271,64.8538 113.604,67.8538 111.5,70.5C 111.5,71.1667 111.5,71.8333 111.5,72.5C 111.074,76.4268 110.074,80.0935 108.5,83.5C 106.837,85.4385 106.171,87.7718 106.5,90.5C 104.101,100.782 101.101,110.782 97.5,120.5C 96.9512,118.099 96.1178,115.765 95,113.5C 92.7915,112.321 92.2915,110.321 93.5,107.5C 92.1605,104.312 91.6605,100.978 92,97.5C 92.9147,96.6721 93.5814,95.6721 94,94.5C 95,95.5 96,96.5 97,97.5C 97.3333,96.8333 97.6667,96.1667 98,95.5C 99.5123,97.9574 100.846,97.9574 102,95.5C 102.333,96.8333 102.667,98.1667 103,99.5C 103.212,96.2423 103.712,93.0757 104.5,90C 103.874,89.2496 103.374,88.4162 103,87.5C 102.558,89.6785 101.558,90.3452 100,89.5C 99.7537,86.1103 99.2537,82.777 98.5,79.5C 99.4411,77.2279 100.774,75.2279 102.5,73.5C 103.425,72.3595 104.259,72.3595 105,73.5C 105.449,70.868 106.283,68.368 107.5,66C 107.355,65.228 107.022,64.5613 106.5,64C 107.253,62.513 108.086,62.3463 109,63.5C 108.021,61.7215 108.354,60.0548 110,58.5C 110.414,58.9574 110.914,59.2907 111.5,59.5C 111.911,58.7376 112.077,57.7376 112,56.5C 112.718,57.4506 113.551,57.6172 114.5,57C 113.879,54.5017 114.545,52.1684 116.5,50C 115.643,49.3109 114.977,48.4776 114.5,47.5C 115.711,46.2798 115.711,45.1131 114.5,44C 118.272,43.3893 118.272,42.3893 114.5,41C 115.253,39.513 116.086,39.3463 117,40.5C 117.333,38.5 117.667,36.5 118,34.5C 118.333,35.1667 118.667,35.8333 119,36.5C 119.149,33.7215 119.983,33.2215 121.5,35C 120.74,36.4411 120.074,37.9411 119.5,39.5C 120.601,41.3939 121.934,42.0606 123.5,41.5C 122.167,42.5 120.833,43.5 119.5,44.5C 120.167,45.1667 120.833,45.8333 121.5,46.5C 119.18,49.8128 120.013,52.4794 124,54.5C 127.93,53.0309 128.097,51.8643 124.5,51C 126.432,49.0282 126.932,46.8616 126,44.5C 128.33,41.8179 128.83,42.1512 127.5,45.5C 128.274,46.7112 129.107,46.7112 130,45.5C 130.333,46.1667 130.667,46.8333 131,47.5C 132.213,45.8697 133.046,44.0364 133.5,42C 131.632,39.4205 131.632,36.5872 133.5,33.5C 133.167,33.1667 132.833,32.8333 132.5,32.5C 129.479,34.6903 127.146,33.8569 125.5,30C 126.738,30.0773 127.738,29.9106 128.5,29.5C 127.624,28.7492 126.624,28.2492 125.5,28C 127.046,26.5604 127.879,24.7271 128,22.5C 128.667,23.1667 129.333,23.8333 130,24.5C 130.667,22.5 131.333,20.5 132,18.5C 133.765,19.2393 135.765,19.2393 138,18.5C 138.333,19.5 138.667,20.5 139,21.5C 139.667,18.8333 140.333,18.8333 141,21.5C 141.705,19.0144 142.538,19.0144 143.5,21.5 Z"/></g>
<g><path style="opacity:1" fill="#256a38" d="M 308.5,25.5 C 318.4,33.954 324.733,44.6206 327.5,57.5C 327.41,60.1522 328.076,62.4855 329.5,64.5C 330.954,70.3685 331.621,76.3685 331.5,82.5C 331.5,96.1667 331.5,109.833 331.5,123.5C 329.496,128.525 328.496,133.858 328.5,139.5C 321.014,167.277 307.347,191.61 287.5,212.5C 281.461,217.178 275.461,221.845 269.5,226.5C 262.635,231.097 255.635,235.43 248.5,239.5C 243.982,240.797 239.649,242.463 235.5,244.5C 235.064,240.589 235.064,236.422 235.5,232C 237.211,229.411 239.045,226.911 241,224.5C 241.078,222.343 241.245,220.343 241.5,218.5C 238.077,213.073 239.41,210.74 245.5,211.5C 248.137,216.727 252.137,217.894 257.5,215C 254.936,212.724 255.27,210.724 258.5,209C 258.167,208.667 257.833,208.333 257.5,208C 260.162,205.153 263.495,203.653 267.5,203.5C 269.671,203.727 271.838,204.06 274,204.5C 274.667,203.167 275.667,202.167 277,201.5C 279.446,202.909 282.112,203.909 285,204.5C 285.163,202.613 284.329,201.113 282.5,200C 284.019,198.649 285.352,197.149 286.5,195.5C 286.291,194.914 285.957,194.414 285.5,194C 287.742,189.636 288.909,185.136 289,180.5C 290.667,179.167 292.333,177.833 294,176.5C 294.499,172.179 294.666,167.846 294.5,163.5C 292.412,162.135 289.578,160.801 286,159.5C 283.959,154.771 284.125,150.271 286.5,146C 285.376,145.161 284.709,143.994 284.5,142.5C 285.886,139.098 288.22,136.431 291.5,134.5C 293.371,133.233 295.204,133.233 297,134.5C 301.312,131.062 304.812,126.895 307.5,122C 306.633,118.557 306.299,115.224 306.5,112C 308.261,107.502 308.928,103.002 308.5,98.5C 307.296,95.5853 305.296,93.4186 302.5,92C 306.592,90.2504 310.759,88.7504 315,87.5C 315.761,83.6626 315.261,79.9959 313.5,76.5C 314.53,72.5351 314.697,68.5351 314,64.5C 313.586,64.0426 313.086,63.7093 312.5,63.5C 308.506,67.0768 307.506,71.4102 309.5,76.5C 306.748,80.8838 304.082,85.3838 301.5,90C 294.661,92.8796 287.994,95.3796 281.5,97.5C 280.009,96.6519 279.342,95.3186 279.5,93.5C 280.353,90.9285 280.353,88.2619 279.5,85.5C 278.325,85.719 277.325,85.3857 276.5,84.5C 275.992,82.0958 274.825,81.4291 273,82.5C 271.406,81.2841 269.906,79.9507 268.5,78.5C 264.742,76.0898 260.742,74.0898 256.5,72.5C 255.205,70.6721 254.205,68.6721 253.5,66.5C 251.618,65.9067 249.785,65.2401 248,64.5C 247.333,63.5 247.333,62.5 248,61.5C 249.844,59.1141 252.344,57.9474 255.5,58C 257.046,55.7432 258.712,53.5765 260.5,51.5C 265.337,49.5457 269.837,47.879 274,46.5C 275.2,44.5884 276.867,43.2551 279,42.5C 279.853,44.1247 280.853,44.4581 282,43.5C 282.167,44.3333 282.333,45.1667 282.5,46C 281.518,48.4109 280.851,50.9109 280.5,53.5C 281.826,58.3639 284.659,62.3639 289,65.5C 290.57,64.6422 292.237,63.9755 294,63.5C 295.554,61.0615 297.554,59.0615 300,57.5C 300.667,55.1667 300.667,52.8333 300,50.5C 295.302,48.1511 290.469,45.9844 285.5,44C 286.87,41.1669 286.536,38.5002 284.5,36C 285.308,35.6924 285.975,35.1924 286.5,34.5C 282.13,33.6294 279.63,30.9627 279,26.5C 277.581,25.5399 276.081,24.7065 274.5,24C 275.685,22.647 277.019,21.4803 278.5,20.5C 281.874,20.6953 285.207,20.6953 288.5,20.5C 290.194,22.5543 291.361,24.8877 292,27.5C 293,26.1667 294,26.1667 295,27.5C 295.894,29.9787 296.227,32.312 296,34.5C 300.629,39.2143 305.129,39.381 309.5,35C 308.283,33.3523 307.45,31.519 307,29.5C 305.32,28.3966 303.82,28.7299 302.5,30.5C 302.264,29.7528 301.93,28.9195 301.5,28C 302.859,26.7955 303.859,25.2955 304.5,23.5C 305.368,25.7962 306.702,26.4629 308.5,25.5 Z"/></g>
<g><path style="opacity:1" fill="#2b6c41" d="M 40.5,14.5 C 39.3398,16.2027 40.0065,16.8693 42.5,16.5C 42.5,17.5 42.5,18.5 42.5,19.5C 41.5,19.5 40.5,19.5 39.5,19.5C 35.9768,21.5219 32.6435,23.8552 29.5,26.5C 29.7093,27.086 30.0426,27.586 30.5,28C 27.8333,28.6667 27.8333,29.3333 30.5,30C 27.5602,35.8007 25.2269,41.8007 23.5,48C 24.1667,48.3333 24.8333,48.6667 25.5,49C 23.714,49.7845 22.214,50.9512 21,52.5C 20.6667,52.1667 20.3333,51.8333 20,51.5C 17.9833,54.1272 18.1499,56.6272 20.5,59C 18.9544,60.4396 18.121,62.2729 18,64.5C 16.3228,62.4748 15.3228,60.1415 15,57.5C 14.3333,58.8333 13.6667,58.8333 13,57.5C 12.1965,60.2442 11.1965,62.9109 10,65.5C 8.66667,64.8333 7.66667,63.8333 7,62.5C 6.2917,63.3805 5.45837,64.0472 4.5,64.5C 6.13476,53.2403 10.4681,43.2403 17.5,34.5C 18.9063,34.0269 19.573,33.0269 19.5,31.5C 25.0471,23.9443 32.0471,18.2777 40.5,14.5 Z"/></g>
<g><path style="opacity:1" fill="#7ca58a" d="M 19.5,31.5 C 19.573,33.0269 18.9063,34.0269 17.5,34.5C 17.427,32.9731 18.0937,31.9731 19.5,31.5 Z"/></g>
<g><path style="opacity:1" fill="#82ad8f" d="M 327.5,57.5 C 328.924,59.5145 329.59,61.8478 329.5,64.5C 328.076,62.4855 327.41,60.1522 327.5,57.5 Z"/></g>
<g><path style="opacity:1" fill="#8fb097" d="M 111.5,70.5 C 146.671,70.1683 181.671,70.5016 216.5,71.5C 181.427,71.1738 146.427,71.5071 111.5,72.5C 111.5,71.8333 111.5,71.1667 111.5,70.5 Z"/></g>
<g><path style="opacity:1" fill="#28703f" d="M 259.5,104.5 C 254.044,88.7095 243.377,78.3762 227.5,73.5C 227.631,72.6236 227.298,71.9569 226.5,71.5C 223.548,70.9322 220.881,69.7656 218.5,68C 218.381,66.7188 218.881,65.5521 220,64.5C 222.154,65.2264 224.654,65.3931 227.5,65C 225.099,64.195 225.266,63.3617 228,62.5C 231,63.1667 234,63.8333 237,64.5C 237.561,63.9781 238.228,63.6448 239,63.5C 241.741,65.4553 244.574,67.2886 247.5,69C 246.5,69.8333 245.5,70.6667 244.5,71.5C 246.56,74.9712 248.06,78.6379 249,82.5C 249.953,80.4078 251.286,80.0745 253,81.5C 253.333,80.1667 253.667,78.8333 254,77.5C 258.316,79.2739 262.316,81.6073 266,84.5C 266.333,84.1667 266.667,83.8333 267,83.5C 269.553,87.1579 270.886,91.1579 271,95.5C 268.825,96.2546 266.659,97.088 264.5,98C 263.672,100.464 262.672,102.964 261.5,105.5C 260.817,105.137 260.15,104.804 259.5,104.5 Z"/></g>
<g><path style="opacity:1" fill="#246939" d="M 5.5,86.5 C 6.58617,86.62 7.25284,87.2867 7.5,88.5C 7.65465,94.967 7.32132,101.467 6.5,108C 7.16555,113.817 7.66555,119.651 8,125.5C 9.35934,123.743 9.526,121.743 8.5,119.5C 8.69221,117.423 9.19221,115.423 10,113.5C 10.3333,113.833 10.6667,114.167 11,114.5C 12.6667,113.833 14.3333,113.167 16,112.5C 16.3333,113.167 16.6667,113.833 17,114.5C 19.0806,113.785 21.2473,112.785 23.5,111.5C 27.3863,112.588 27.3863,113.421 23.5,114C 24.1667,114.333 24.8333,114.667 25.5,115C 22.9679,118.14 23.8013,120.307 28,121.5C 30.0084,120.236 31.1751,118.403 31.5,116C 29.8179,114.105 29.3179,111.938 30,109.5C 30.3333,110.167 30.6667,110.833 31,111.5C 32.126,110.056 33.626,109.39 35.5,109.5C 38.9599,110.929 42.6265,111.762 46.5,112C 46.1667,112.333 45.8333,112.667 45.5,113C 47.032,113.7 48.032,114.866 48.5,116.5C 47.4499,120.215 47.4499,124.215 48.5,128.5C 49.4776,128.977 50.3109,129.643 51,130.5C 50.9227,129.262 51.0894,128.262 51.5,127.5C 53.0503,129.959 55.0503,130.626 57.5,129.5C 63.8515,133.168 63.5182,136.168 56.5,138.5C 56.6495,139.552 56.4828,140.552 56,141.5C 53.2657,141.367 50.5991,141.367 48,141.5C 46.745,139.406 44.9116,138.406 42.5,138.5C 40.6619,139.112 38.9953,139.112 37.5,138.5C 35.8333,141.167 34.1667,141.167 32.5,138.5C 30.9411,139.074 29.4411,139.74 28,140.5C 23.403,139.689 19.0697,139.022 15,138.5C 13.0372,141.946 11.7039,141.946 11,138.5C 9.69137,140.891 8.69137,140.891 8,138.5C 7.61161,142.219 6.94495,145.886 6,149.5C 5.66667,146.833 5.33333,144.167 5,141.5C 4.33333,150.5 4.33333,159.5 5,168.5C 5.5469,163.266 6.38024,163.266 7.5,168.5C 7.25009,180.554 6.75009,192.887 6,205.5C 5.66667,195.5 5.33333,185.5 5,175.5C 4.33333,193.167 4.33333,210.833 5,228.5C 5.36906,216.608 6.36906,216.608 8,228.5C 8.41862,227.328 9.08529,226.328 10,225.5C 10.4966,227.81 10.6633,230.143 10.5,232.5C 9.5,232.5 8.5,232.5 7.5,232.5C 6.56745,238.248 6.40079,244.248 7,250.5C 6,251.833 5,253.167 4,254.5C 3.33333,199.5 3.33333,144.5 4,89.5C 4.33333,94.1667 4.66667,98.8333 5,103.5C 5.49942,97.8431 5.66609,92.1764 5.5,86.5 Z"/></g>
<g><path style="opacity:1" fill="#77a17f" d="M 108.5,83.5 C 108.279,86.0673 107.612,88.4006 106.5,90.5C 106.171,87.7718 106.837,85.4385 108.5,83.5 Z"/></g>
<g><path style="opacity:1" fill="#3d9759" d="M 331.5,82.5 C 332.665,140.332 332.832,198.332 332,256.5C 331.877,263.717 330.711,270.717 328.5,277.5C 326.692,278.918 326.025,280.918 326.5,283.5C 322.823,295.528 316.157,305.528 306.5,313.5C 300.485,313.012 295.819,315.512 292.5,321C 292.833,321.333 293.167,321.667 293.5,322C 291.782,322.346 290.115,322.846 288.5,323.5C 288.331,322.603 287.998,321.603 287.5,320.5C 286.029,321.381 285.196,322.714 285,324.5C 283.309,321.641 280.809,320.308 277.5,320.5C 279.06,320.145 279.893,318.145 280,314.5C 280.667,315.833 281.333,315.833 282,314.5C 283.333,315.167 284.333,316.167 285,317.5C 285.333,316.5 285.667,315.5 286,314.5C 287,314.833 288,315.167 289,315.5C 290.021,312.895 290.855,310.228 291.5,307.5C 290.13,304.428 289.13,301.261 288.5,298C 289.624,297.751 290.624,297.251 291.5,296.5C 291.333,296.167 291.167,295.833 291,295.5C 289.988,293.136 288.655,291.802 287,291.5C 285.113,293.026 284.113,295.026 284,297.5C 282.333,295.833 280.667,294.167 279,292.5C 278.667,292.833 278.333,293.167 278,293.5C 277.333,292.167 277.333,290.833 278,289.5C 278.333,289.833 278.667,290.167 279,290.5C 279.333,289.5 279.667,288.5 280,287.5C 280.423,288.956 281.256,289.456 282.5,289C 281.485,286.735 280.318,284.901 279,283.5C 278.667,285.167 278.333,286.833 278,288.5C 277.882,285.292 276.715,282.626 274.5,280.5C 274.88,278.979 275.046,277.313 275,275.5C 276.016,274.366 276.683,274.699 277,276.5C 277.778,274.416 278.945,272.583 280.5,271C 280.072,268.371 279.072,266.038 277.5,264C 278.428,263.612 279.095,262.945 279.5,262C 279.441,253.898 279.441,245.898 279.5,238C 281.864,234.504 284.197,231.671 286.5,229.5C 286.167,228.167 285.833,226.833 285.5,225.5C 288.001,222.899 288.001,220.399 285.5,218C 286.167,217.667 286.833,217.333 287.5,217C 287.034,215.701 287.034,214.201 287.5,212.5C 307.347,191.61 321.014,167.277 328.5,139.5C 329.29,138.391 329.79,137.058 330,135.5C 330.333,174.167 330.667,212.833 331,251.5C 331.5,208.835 331.667,166.168 331.5,123.5C 331.5,109.833 331.5,96.1667 331.5,82.5 Z"/></g>
<g><path style="opacity:1" fill="#679472" d="M 88.5,152.5 C 88.2785,155.067 87.6118,157.401 86.5,159.5C 86.3379,157.473 86.5045,155.473 87,153.5C 87.3826,152.944 87.8826,152.611 88.5,152.5 Z"/></g>
<g><path style="opacity:1" fill="#2c7140" d="M 100.5,221.5 C 112.331,210.076 125.998,201.409 141.5,195.5C 143.927,196.974 146.26,196.807 148.5,195C 148.167,194.667 147.833,194.333 147.5,194C 151.715,192.766 155.715,191.266 159.5,189.5C 160.919,188.549 162.585,188.216 164.5,188.5C 174.447,188.176 184.113,186.843 193.5,184.5C 217.728,180.23 237.395,168.564 252.5,149.5C 260.052,146.073 263.219,140.073 262,131.5C 262.333,131.833 262.667,132.167 263,132.5C 263.687,130.432 263.52,128.432 262.5,126.5C 263.274,125.289 264.107,125.289 265,126.5C 265.167,125.667 265.333,124.833 265.5,124C 265.149,120.896 264.649,121.063 264,124.5C 263.333,120.5 263.333,116.5 264,112.5C 264.914,116.185 265.581,115.852 266,111.5C 266.333,112.167 266.667,112.833 267,113.5C 271.023,111.952 272.857,113.452 272.5,118C 271.357,122.142 270.69,126.142 270.5,130C 271.286,133.436 271.953,136.936 272.5,140.5C 272.526,146.64 270.026,151.307 265,154.5C 263.765,155.615 262.598,155.615 261.5,154.5C 257.283,156.339 254.283,159.339 252.5,163.5C 251.223,175.304 244.556,182.804 232.5,186C 231.292,188.25 229.959,190.417 228.5,192.5C 226.389,191.636 224.556,191.636 223,192.5C 221.684,193.974 220.684,195.641 220,197.5C 219.667,196.5 219.333,195.5 219,194.5C 218.667,194.833 218.333,195.167 218,195.5C 213.699,193.451 209.532,191.118 205.5,188.5C 204.914,188.709 204.414,189.043 204,189.5C 203.632,188.09 202.799,187.09 201.5,186.5C 200.064,188.822 198.23,189.489 196,188.5C 195.716,190.886 194.716,191.552 193,190.5C 190.87,193.78 189.703,197.113 189.5,200.5C 188.252,201.04 187.085,201.707 186,202.5C 184.387,201.378 183.22,201.878 182.5,204C 179.333,205.167 176.167,206.333 173,207.5C 169.522,205.402 166.022,203.402 162.5,201.5C 157.874,203.23 153.208,204.897 148.5,206.5C 145.479,205.423 142.313,204.756 139,204.5C 137.654,207.701 135.32,210.034 132,211.5C 131.667,211.167 131.333,210.833 131,210.5C 127.579,217.848 122.079,223.348 114.5,227C 108.081,227.717 104.915,224.884 105,218.5C 103.871,220.141 102.371,221.141 100.5,221.5 Z"/></g>
<g><path style="opacity:1" fill="#256938" d="M 29.5,157.5 C 31.3786,157.393 31.7119,157.893 30.5,159C 32.7536,160.054 33.087,161.554 31.5,163.5C 31.8076,164.308 32.3076,164.975 33,165.5C 37.3797,163.3 37.5464,161.966 33.5,161.5C 34.8883,158.921 36.3883,158.921 38,161.5C 38.6891,160.643 39.5224,159.977 40.5,159.5C 43.0205,160.785 45.6872,161.452 48.5,161.5C 49.0648,164.869 50.7315,167.536 53.5,169.5C 54.6309,171.074 54.7975,172.741 54,174.5C 53.6667,173.5 53.3333,172.5 53,171.5C 50.2434,175.113 48.0767,179.113 46.5,183.5C 44.3428,185.412 42.0094,187.079 39.5,188.5C 38.8602,193.062 37.6936,193.396 36,189.5C 35,192.167 34,192.167 33,189.5C 32,190.167 31,190.833 30,191.5C 29.5298,189.226 28.5298,187.226 27,185.5C 26,184.167 25,184.167 24,185.5C 23.3647,183.382 22.5314,181.382 21.5,179.5C 22.9753,178.855 23.9753,177.188 24.5,174.5C 26.4436,173.044 28.1102,172.044 29.5,171.5C 28.1667,168.833 26.8333,166.167 25.5,163.5C 28.144,163.021 29.4773,161.021 29.5,157.5 Z"/></g>
<g><path style="opacity:1" fill="#53845f" d="M 85.5,162.5 C 84.7388,167.437 83.4054,172.103 81.5,176.5C 81.1382,171.257 82.4715,166.591 85.5,162.5 Z"/></g>
<g><path style="opacity:1" fill="#298145" d="M 331.5,123.5 C 331.667,166.168 331.5,208.835 331,251.5C 330.667,212.833 330.333,174.167 330,135.5C 329.79,137.058 329.29,138.391 328.5,139.5C 328.496,133.858 329.496,128.525 331.5,123.5 Z"/></g>
<g><path style="opacity:1" fill="#6b9574" d="M 193.5,184.5 C 184.113,186.843 174.447,188.176 164.5,188.5C 173.966,186.715 183.633,185.382 193.5,184.5 Z"/></g>
<g><path style="opacity:1" fill="#588b62" d="M 159.5,189.5 C 155.715,191.266 151.715,192.766 147.5,194C 147.833,194.333 148.167,194.667 148.5,195C 146.26,196.807 143.927,196.974 141.5,195.5C 147.085,192.527 153.085,190.527 159.5,189.5 Z"/></g>
<g><path style="opacity:1" fill="#25703d" d="M 212.5,207.5 C 214.933,209.05 217.433,209.384 220,208.5C 220.928,210.335 222.094,210.668 223.5,209.5C 224.192,210.025 224.692,210.692 225,211.5C 225.333,211.167 225.667,210.833 226,210.5C 226.319,213.973 227.819,216.806 230.5,219C 228.545,222.108 226.712,221.941 225,218.5C 224,221.167 223,221.167 222,218.5C 218.979,219.09 216.812,220.757 215.5,223.5C 213.579,224.641 211.579,224.808 209.5,224C 207.453,220.536 205.787,216.87 204.5,213C 207.099,210.265 209.765,208.432 212.5,207.5 Z"/></g>
<g><path style="opacity:1" fill="#7ca487" d="M 72.5,209.5 C 72.2041,211.403 71.5375,213.07 70.5,214.5C 70.1201,212.302 70.7868,210.635 72.5,209.5 Z"/></g>
<g><path style="opacity:1" fill="#5c8663" d="M 70.5,215.5 C 70.1007,219.116 69.1007,222.45 67.5,225.5C 67.3924,221.753 67.8924,218.086 69,214.5C 69.3826,215.056 69.8826,215.389 70.5,215.5 Z"/></g>
<g><path style="opacity:1" fill="#29703d" d="M 158.5,226.5 C 161.196,226.88 164.196,227.213 167.5,227.5C 168.837,231.354 168.337,235.021 166,238.5C 162.275,239.775 158.942,241.775 156,244.5C 155.309,242.109 154.309,242.109 153,244.5C 151.833,242 150,240.167 147.5,239C 148.609,237.187 147.942,236.354 145.5,236.5C 145.5,235.5 145.5,234.5 145.5,233.5C 146.552,233.649 147.552,233.483 148.5,233C 147.663,231.989 147.33,230.822 147.5,229.5C 151.21,228.324 154.876,227.324 158.5,226.5 Z"/></g>
<g><path style="opacity:1" fill="#4d7f5c" d="M 65.5,232.5 C 65.1007,236.116 64.1007,239.45 62.5,242.5C 62.3367,240.143 62.5034,237.81 63,235.5C 63.2355,233.881 64.0689,232.881 65.5,232.5 Z"/></g>
<g><path style="opacity:1" fill="#378e51" d="M 269.5,226.5 C 270.41,228.019 271.243,229.685 272,231.5C 272.333,231.167 272.667,230.833 273,230.5C 273.483,231.448 273.649,232.448 273.5,233.5C 270.402,233.413 270.068,233.913 272.5,235C 270.273,235.121 268.44,235.954 267,237.5C 265.989,236.663 264.822,236.33 263.5,236.5C 263.716,238.681 262.883,240.347 261,241.5C 260.667,240.5 260.333,239.5 260,238.5C 259.193,242.397 257.526,243.063 255,240.5C 254.333,241.833 254.333,243.167 255,244.5C 256.183,243.269 257.349,243.269 258.5,244.5C 259.213,246.776 259.713,249.109 260,251.5C 261.057,249.1 261.724,246.767 262,244.5C 262.167,249 262.333,253.5 262.5,258C 262.069,263.821 262.069,269.487 262.5,275C 260.129,279.35 258.462,283.684 257.5,288C 258.662,293.532 258.329,299.199 256.5,305C 258.094,307.937 259.094,310.771 259.5,313.5C 258.282,313.109 257.448,313.776 257,315.5C 256.487,314.473 255.987,313.473 255.5,312.5C 256.395,309.318 255.728,306.318 253.5,303.5C 253.709,302.914 254.043,302.414 254.5,302C 253.529,300.796 252.529,300.296 251.5,300.5C 252.025,299.808 252.692,299.308 253.5,299C 251.779,297.473 249.779,296.473 247.5,296C 250.167,295.333 250.167,294.667 247.5,294C 249.394,292.921 249.727,291.587 248.5,290C 251.179,290.725 253.012,289.559 254,286.5C 255.5,283.867 255.667,281.2 254.5,278.5C 255.297,276.868 256.297,275.368 257.5,274C 257.108,272.989 256.441,272.489 255.5,272.5C 255.709,271.914 256.043,271.414 256.5,271C 255.751,269.266 255.251,267.433 255,265.5C 254.259,266.641 253.425,266.641 252.5,265.5C 250.774,263.561 249.107,261.727 247.5,260C 250.456,258.658 252.456,256.992 253.5,255C 250.018,251.827 249.685,248.827 252.5,246C 251.237,244.295 250.903,242.628 251.5,241C 250.263,240.768 249.263,240.268 248.5,239.5C 255.635,235.43 262.635,231.097 269.5,226.5 Z"/></g>
<g><path style="opacity:1" fill="#378851" d="M 248.5,239.5 C 249.263,240.268 250.263,240.768 251.5,241C 250.903,242.628 251.237,244.295 252.5,246C 249.685,248.827 250.018,251.827 253.5,255C 252.456,256.992 250.456,258.658 247.5,260C 249.107,261.727 250.774,263.561 252.5,265.5C 253.425,266.641 254.259,266.641 255,265.5C 255.251,267.433 255.751,269.266 256.5,271C 256.043,271.414 255.709,271.914 255.5,272.5C 256.441,272.489 257.108,272.989 257.5,274C 256.297,275.368 255.297,276.868 254.5,278.5C 255.667,281.2 255.5,283.867 254,286.5C 253.012,289.559 251.179,290.725 248.5,290C 249.727,291.587 249.394,292.921 247.5,294C 250.167,294.667 250.167,295.333 247.5,296C 249.779,296.473 251.779,297.473 253.5,299C 252.692,299.308 252.025,299.808 251.5,300.5C 252.529,300.296 253.529,300.796 254.5,302C 254.043,302.414 253.709,302.914 253.5,303.5C 255.728,306.318 256.395,309.318 255.5,312.5C 254.305,312.866 253.639,313.699 253.5,315C 254.642,319.876 256.309,324.543 258.5,329C 257.328,329.419 256.328,330.085 255.5,331C 257.81,331.497 260.143,331.663 262.5,331.5C 259.038,332.482 255.371,332.815 251.5,332.5C 248.15,332.665 244.817,332.498 241.5,332C 244.01,330.859 245.176,329.026 245,326.5C 244.667,326.833 244.333,327.167 244,327.5C 242.708,325.751 241.542,323.918 240.5,322C 238.975,320.991 237.308,320.491 235.5,320.5C 235.918,319.778 236.584,319.278 237.5,319C 234.667,317.5 232.5,315.333 231,312.5C 230.667,312.833 230.333,313.167 230,313.5C 228.725,311.283 227.725,308.949 227,306.5C 226.333,307.833 225.667,309.167 225,310.5C 223.821,306.642 221.988,303.142 219.5,300C 219.957,299.586 220.291,299.086 220.5,298.5C 219.833,296.167 219.167,293.833 218.5,291.5C 219.167,291.167 219.833,290.833 220.5,290.5C 220.346,287.68 220.346,284.846 220.5,282C 218.406,280.745 217.406,278.912 217.5,276.5C 218.742,271.612 220.075,266.779 221.5,262C 220.391,260.187 221.058,259.354 223.5,259.5C 223.342,256.098 223.676,252.764 224.5,249.5C 228.037,247.65 231.703,245.983 235.5,244.5C 239.649,242.463 243.982,240.797 248.5,239.5 Z"/></g>
<g><path style="opacity:1" fill="#32824b" d="M 216.5,252.5 C 216.972,254.748 216.305,256.915 214.5,259C 214.725,262.509 215.058,266.009 215.5,269.5C 212.941,271.952 211.441,274.952 211,278.5C 210.333,277.833 209.667,277.167 209,276.5C 208.282,277.451 207.449,277.617 206.5,277C 207.361,274.679 206.361,273.513 203.5,273.5C 203.131,278.227 204.465,282.394 207.5,286C 207.004,290.17 208.338,293.836 211.5,297C 210.833,297.667 210.167,298.333 209.5,299C 210.893,300.171 211.727,301.671 212,303.5C 212.833,302.5 213.667,301.5 214.5,300.5C 214.833,300.833 215.167,301.167 215.5,301.5C 216.226,304.852 217.059,308.185 218,311.5C 218.579,307.614 219.412,307.614 220.5,311.5C 220.291,312.086 219.957,312.586 219.5,313C 220.701,313.903 221.535,315.069 222,316.5C 222.333,315.167 222.667,313.833 223,312.5C 223.555,317.939 226.389,321.272 231.5,322.5C 233.114,322.197 234.448,321.53 235.5,320.5C 237.308,320.491 238.975,320.991 240.5,322C 241.542,323.918 242.708,325.751 244,327.5C 244.333,327.167 244.667,326.833 245,326.5C 245.176,329.026 244.01,330.859 241.5,332C 244.817,332.498 248.15,332.665 251.5,332.5C 247.03,333.486 242.363,333.819 237.5,333.5C 227.675,332.67 217.675,332.17 207.5,332C 210.833,331.667 214.167,331.333 217.5,331C 216.366,329.984 216.699,329.317 218.5,329C 216.959,327.421 215.792,325.587 215,323.5C 212.772,324.299 211.439,323.299 211,320.5C 208.236,320.393 205.903,321.059 204,322.5C 203.517,321.552 203.351,320.552 203.5,319.5C 202.178,319.33 201.011,319.663 200,320.5C 197.961,317.729 196.295,314.729 195,311.5C 194,311.5 193,311.5 192,311.5C 191.667,309.5 191.333,307.5 191,305.5C 190.667,306.167 190.333,306.833 190,307.5C 188.937,306.562 187.77,305.562 186.5,304.5C 186.694,302.93 186.694,301.43 186.5,300C 188.061,299.682 189.228,298.849 190,297.5C 190.333,298.167 190.667,298.833 191,299.5C 190.196,287.478 191.196,275.812 194,264.5C 194.333,264.833 194.667,265.167 195,265.5C 195.785,263.714 196.951,262.214 198.5,261C 197.838,259.668 196.672,258.502 195,257.5C 194.023,258.774 193.189,258.774 192.5,257.5C 200.412,255.523 208.412,253.856 216.5,252.5 Z"/></g>
<g><path style="opacity:1" fill="#7da284" d="M 70.5,252.5 C 69.0101,254.28 67.0101,254.946 64.5,254.5C 66.3024,253.542 68.3024,252.875 70.5,252.5 Z"/></g>
<g><path style="opacity:1" fill="#256938" d="M 65.5,256.5 C 67.2884,255.378 69.2884,255.211 71.5,256C 70.3279,256.419 69.3279,257.085 68.5,258C 69.0143,260.415 70.0143,261.749 71.5,262C 71.1081,263.011 70.4415,263.511 69.5,263.5C 71.2003,265.068 72.5336,266.901 73.5,269C 71.9963,270.491 71.1629,272.324 71,274.5C 70.6924,273.692 70.1924,273.025 69.5,272.5C 68.3036,273.559 67.637,274.893 67.5,276.5C 67.7737,281.518 68.4403,286.684 69.5,292C 68.7665,293.766 68.4332,295.599 68.5,297.5C 70.9424,297.646 71.6091,296.813 70.5,295C 71.7014,294.097 72.5348,292.931 73,291.5C 74.4447,293.612 74.2781,295.778 72.5,298C 76.5641,298.418 78.0641,300.585 77,304.5C 75.545,305.557 73.8783,305.557 72,304.5C 71.6667,305.5 71.3333,306.5 71,307.5C 69.0627,307.179 67.5627,308.179 66.5,310.5C 68.509,311.056 70.509,312.389 72.5,314.5C 73.1667,313.833 73.8333,313.167 74.5,312.5C 76.0094,315.616 75.5094,318.282 73,320.5C 72.6667,319.167 72.3333,317.833 72,316.5C 70.2513,317.299 68.918,316.632 68,314.5C 66.6761,316.5 65.0095,318.167 63,319.5C 62.0853,318.672 61.4186,317.672 61,316.5C 60.586,316.957 60.086,317.291 59.5,317.5C 56.7712,316.077 54.1045,315.41 51.5,315.5C 51.212,317.487 49.8787,319.154 47.5,320.5C 48.5341,323.057 47.5341,324.391 44.5,324.5C 42.1815,324.008 40.1815,323.008 38.5,321.5C 37.0474,320.175 37.3808,319.342 39.5,319C 33.8613,316.693 29.1947,313.193 25.5,308.5C 24.3132,307.347 23.3132,307.347 22.5,308.5C 21.8333,308.5 21.5,308.167 21.5,307.5C 21.5394,306.417 21.8728,305.417 22.5,304.5C 19.7997,302.766 17.7997,300.432 16.5,297.5C 16.5565,296.263 17.0565,295.263 18,294.5C 18.3173,296.301 18.984,296.634 20,295.5C 21.6477,296.717 23.481,297.55 25.5,298C 22.8333,298.667 22.8333,299.333 25.5,300C 23.3143,300.604 23.1476,301.77 25,303.5C 27.032,301.232 28.3654,301.898 29,305.5C 29.3333,304.833 29.6667,304.167 30,303.5C 30.6667,306.167 31.3333,306.167 32,303.5C 32.9145,307.185 33.5811,306.852 34,302.5C 35.6667,303.5 37.3333,304.5 39,305.5C 39.6667,302.833 40.3333,302.833 41,305.5C 42.113,304.24 42.2797,303.073 41.5,302C 43.7443,299.651 44.9109,300.151 45,303.5C 46.6458,301.945 46.9791,300.279 46,298.5C 46.6667,299.833 47.3333,299.833 48,298.5C 48.3665,302.281 49.6999,302.948 52,300.5C 53.6667,301.833 55.3333,303.167 57,304.5C 57.3114,303.258 56.8114,302.258 55.5,301.5C 55.8457,300.304 56.3457,300.304 57,301.5C 57.6667,300.167 57.6667,298.833 57,297.5C 56.6667,297.833 56.3333,298.167 56,298.5C 55.6258,297.584 55.1258,296.75 54.5,296C 55.9255,294.286 55.5922,292.953 53.5,292C 57.4828,291.77 58.1494,290.437 55.5,288C 57.2861,287.804 58.6195,286.971 59.5,285.5C 57.7299,284.18 57.3966,282.68 58.5,281C 57.994,278.306 56.8273,276.806 55,276.5C 54.8508,279.279 54.0174,279.779 52.5,278C 53.5536,276.612 53.7203,275.112 53,273.5C 52.6667,273.833 52.3333,274.167 52,274.5C 51.5,273.333 50.6667,272.5 49.5,272C 52.4604,268.856 54.9604,269.356 57,273.5C 57.3333,271.167 57.6667,268.833 58,266.5C 58.8403,263.536 59.8403,263.203 61,265.5C 62.5588,263.783 63.3921,261.783 63.5,259.5C 64.8221,259.67 65.9887,259.337 67,258.5C 67.5281,257.184 67.0281,256.517 65.5,256.5 Z"/></g>
<g><path style="opacity:1" fill="#317c4a" d="M 192.5,257.5 C 193.189,258.774 194.023,258.774 195,257.5C 196.672,258.502 197.838,259.668 198.5,261C 196.951,262.214 195.785,263.714 195,265.5C 194.667,265.167 194.333,264.833 194,264.5C 191.196,275.812 190.196,287.478 191,299.5C 190.667,298.833 190.333,298.167 190,297.5C 189.228,298.849 188.061,299.682 186.5,300C 186.694,301.43 186.694,302.93 186.5,304.5C 187.77,305.562 188.937,306.562 190,307.5C 190.333,306.833 190.667,306.167 191,305.5C 191.333,307.5 191.667,309.5 192,311.5C 193,311.5 194,311.5 195,311.5C 196.295,314.729 197.961,317.729 200,320.5C 201.011,319.663 202.178,319.33 203.5,319.5C 203.351,320.552 203.517,321.552 204,322.5C 205.903,321.059 208.236,320.393 211,320.5C 211.439,323.299 212.772,324.299 215,323.5C 215.792,325.587 216.959,327.421 218.5,329C 216.699,329.317 216.366,329.984 217.5,331C 214.167,331.333 210.833,331.667 207.5,332C 217.675,332.17 227.675,332.67 237.5,333.5C 221.5,333.5 205.5,333.5 189.5,333.5C 186.713,332.523 183.713,332.19 180.5,332.5C 182.265,331.539 184.265,331.205 186.5,331.5C 189.746,331.23 192.746,330.897 195.5,330.5C 196.641,328.579 196.808,326.579 196,324.5C 192.846,324.318 191.18,322.318 191,318.5C 190.259,317.359 189.425,317.359 188.5,318.5C 187.479,316.381 185.979,314.714 184,313.5C 183.667,310.5 183.333,307.5 183,304.5C 181.667,305.167 180.667,306.167 180,307.5C 178.412,301.224 176.078,300.891 173,306.5C 172.667,303.833 172.333,301.167 172,298.5C 167.662,295.806 167.829,292.639 172.5,289C 174.225,289.409 175.892,289.242 177.5,288.5C 178.902,287.158 178.569,286.324 176.5,286C 178.032,285.3 179.032,284.134 179.5,282.5C 178.675,278.849 179.341,278.682 181.5,282C 180.465,283.507 180.632,285.007 182,286.5C 182.5,286 183,285.5 183.5,285C 183.071,276.572 183.071,267.739 183.5,258.5C 186.482,258.037 189.482,257.704 192.5,257.5 Z"/></g>
<g><path style="opacity:1" fill="#286f3e" d="M 159.5,259.5 C 152.011,260.329 144.344,260.829 136.5,261C 138.044,261.29 139.377,261.956 140.5,263C 138.709,268.961 137.542,275.128 137,281.5C 136.268,279.077 134.768,277.91 132.5,278C 134.296,283.501 133.796,289.001 131,294.5C 129.984,293.366 129.317,293.699 129,295.5C 128.178,292.883 127.678,290.216 127.5,287.5C 125.335,287.116 123.668,287.783 122.5,289.5C 122.632,292.084 122.965,294.584 123.5,297C 121.591,301.626 120.924,306.292 121.5,311C 122.292,315.834 123.125,320.667 124,325.5C 124.914,321.815 125.581,322.148 126,326.5C 127.53,322.91 128.864,319.243 130,315.5C 130.227,318.06 131.56,319.726 134,320.5C 136.848,315.377 139.515,315.377 142,320.5C 142.71,319.027 143.876,318.36 145.5,318.5C 145.461,320.359 146.294,321.692 148,322.5C 148.667,321.167 149.333,321.167 150,322.5C 150.333,321.833 150.667,321.167 151,320.5C 151.219,321.938 151.719,323.271 152.5,324.5C 154.849,325.557 156.849,327.057 158.5,329C 155.291,330.794 151.958,331.961 148.5,332.5C 135.61,332.644 122.943,332.144 110.5,331C 109.833,330.667 109.167,330.333 108.5,330C 112.002,329.344 112.002,328.011 108.5,326C 108.833,325 109.167,324 109.5,323C 107.893,321.951 107.227,320.451 107.5,318.5C 103.466,318.368 100.133,317.368 97.5,315.5C 95.031,315.82 92.3644,315.986 89.5,316C 90.299,314.251 89.6324,312.918 87.5,312C 87.5,310.333 87.5,308.667 87.5,307C 89.3137,304.519 89.9804,301.685 89.5,298.5C 87.8762,298.36 86.7096,299.027 86,300.5C 84.0227,297.688 81.856,295.022 79.5,292.5C 80.9518,288.263 82.9518,284.263 85.5,280.5C 84.8333,279.5 84.1667,278.5 83.5,277.5C 84.4415,277.511 85.1081,277.011 85.5,276C 84.7297,274.225 83.563,272.725 82,271.5C 81.1475,273.125 80.1475,273.458 79,272.5C 79.5356,274.447 79.2022,276.447 78,278.5C 76.984,277.366 76.3173,277.699 76,279.5C 76.6537,275.593 77.1537,271.76 77.5,268C 76.7082,266.04 75.3749,264.54 73.5,263.5C 74.3829,262.452 75.0496,261.285 75.5,260C 75.0556,258.238 74.5556,258.405 74,260.5C 73.1859,258.098 73.3526,255.765 74.5,253.5C 75.8924,252.395 77.059,251.061 78,249.5C 78.4226,250.956 79.2559,251.456 80.5,251C 80.3349,249.883 80.0016,248.716 79.5,247.5C 80.0983,246.205 80.5983,244.872 81,243.5C 82.6255,243.146 84.4588,243.146 86.5,243.5C 87.0114,246.028 87.6781,248.528 88.5,251C 88.3333,251.833 88.1667,252.667 88,253.5C 86.9568,249.774 86.4568,250.107 86.5,254.5C 94.9457,256.101 103.112,257.434 111,258.5C 111.414,258.043 111.914,257.709 112.5,257.5C 127.908,258.998 143.574,259.665 159.5,259.5 Z"/></g>
<g><path style="opacity:1" fill="#2a7542" d="M 235.5,244.5 C 231.703,245.983 228.037,247.65 224.5,249.5C 221.514,249.903 218.848,250.903 216.5,252.5C 208.412,253.856 200.412,255.523 192.5,257.5C 189.482,257.704 186.482,258.037 183.5,258.5C 181.742,258.877 180.075,259.544 178.5,260.5C 177.11,258.797 175.61,258.13 174,258.5C 171.263,259.56 168.43,260.394 165.5,261C 166.76,262.113 167.927,262.28 169,261.5C 169.236,263.764 169.736,265.931 170.5,268C 170.241,271.204 170.241,274.37 170.5,277.5C 169.11,279.169 168.777,280.836 169.5,282.5C 167.513,285.497 165.347,288.497 163,291.5C 162.612,290.572 161.945,289.905 161,289.5C 159.121,291.013 156.954,291.679 154.5,291.5C 154.579,292.93 154.246,294.264 153.5,295.5C 154.289,297.488 155.455,297.821 157,296.5C 158.969,300.196 159.969,304.196 160,308.5C 160.333,306.5 160.667,304.5 161,302.5C 161.667,303.167 162.333,303.833 163,304.5C 163.236,306.764 163.736,308.931 164.5,311C 165.449,311.617 166.282,311.451 167,310.5C 167.442,312.679 168.442,313.345 170,312.5C 172.109,313.035 172.609,314.035 171.5,315.5C 172.65,318.32 173.816,318.654 175,316.5C 175.667,317.833 176.333,317.833 177,316.5C 177.707,318.081 178.54,319.581 179.5,321C 180.449,321.617 181.282,321.451 182,320.5C 184.343,323.405 186.176,326.572 187.5,330C 186.944,330.383 186.611,330.883 186.5,331.5C 184.265,331.205 182.265,331.539 180.5,332.5C 169.833,332.5 159.167,332.5 148.5,332.5C 151.958,331.961 155.291,330.794 158.5,329C 156.849,327.057 154.849,325.557 152.5,324.5C 151.719,323.271 151.219,321.938 151,320.5C 150.667,321.167 150.333,321.833 150,322.5C 149.333,321.167 148.667,321.167 148,322.5C 146.294,321.692 145.461,320.359 145.5,318.5C 143.876,318.36 142.71,319.027 142,320.5C 139.515,315.377 136.848,315.377 134,320.5C 131.56,319.726 130.227,318.06 130,315.5C 128.864,319.243 127.53,322.91 126,326.5C 125.581,322.148 124.914,321.815 124,325.5C 123.125,320.667 122.292,315.834 121.5,311C 120.924,306.292 121.591,301.626 123.5,297C 122.965,294.584 122.632,292.084 122.5,289.5C 123.668,287.783 125.335,287.116 127.5,287.5C 127.678,290.216 128.178,292.883 129,295.5C 129.317,293.699 129.984,293.366 131,294.5C 133.796,289.001 134.296,283.501 132.5,278C 134.768,277.91 136.268,279.077 137,281.5C 137.542,275.128 138.709,268.961 140.5,263C 139.377,261.956 138.044,261.29 136.5,261C 144.344,260.829 152.011,260.329 159.5,259.5C 162.305,258.681 165.305,258.181 168.5,258C 166.741,257.02 165.074,256.353 163.5,256C 167.696,254.443 171.862,252.943 176,251.5C 177.402,253.973 178.902,253.973 180.5,251.5C 183.985,251.689 187.652,251.689 191.5,251.5C 191.238,252.978 191.571,254.311 192.5,255.5C 193.5,254.167 194.5,252.833 195.5,251.5C 196.814,252.313 197.981,253.313 199,254.5C 199.953,252.408 201.286,252.075 203,253.5C 204.101,249.4 206.101,248.733 209,251.5C 210.824,250.598 212.324,248.765 213.5,246C 212.833,245.667 212.167,245.333 211.5,245C 212.5,243.333 213.5,241.667 214.5,240C 217.5,239.333 220.5,239.333 223.5,240C 226.815,243.069 230.815,244.569 235.5,244.5 Z"/></g>
<g><path style="opacity:1" fill="#3b8f57" d="M 287.5,212.5 C 287.034,214.201 287.034,215.701 287.5,217C 286.833,217.333 286.167,217.667 285.5,218C 288.001,220.399 288.001,222.899 285.5,225.5C 285.833,226.833 286.167,228.167 286.5,229.5C 284.197,231.671 281.864,234.504 279.5,238C 279.441,245.898 279.441,253.898 279.5,262C 279.095,262.945 278.428,263.612 277.5,264C 279.072,266.038 280.072,268.371 280.5,271C 278.945,272.583 277.778,274.416 277,276.5C 276.683,274.699 276.016,274.366 275,275.5C 275.046,277.313 274.88,278.979 274.5,280.5C 276.715,282.626 277.882,285.292 278,288.5C 278.333,286.833 278.667,285.167 279,283.5C 280.318,284.901 281.485,286.735 282.5,289C 281.256,289.456 280.423,288.956 280,287.5C 279.667,288.5 279.333,289.5 279,290.5C 278.667,290.167 278.333,289.833 278,289.5C 277.333,290.833 277.333,292.167 278,293.5C 278.333,293.167 278.667,292.833 279,292.5C 280.667,294.167 282.333,295.833 284,297.5C 284.113,295.026 285.113,293.026 287,291.5C 288.655,291.802 289.988,293.136 291,295.5C 291.167,295.833 291.333,296.167 291.5,296.5C 290.624,297.251 289.624,297.751 288.5,298C 289.13,301.261 290.13,304.428 291.5,307.5C 290.855,310.228 290.021,312.895 289,315.5C 288,315.167 287,314.833 286,314.5C 285.667,315.5 285.333,316.5 285,317.5C 284.333,316.167 283.333,315.167 282,314.5C 281.333,315.833 280.667,315.833 280,314.5C 279.893,318.145 279.06,320.145 277.5,320.5C 276.24,320.799 275.073,320.799 274,320.5C 273.689,322.556 273.189,324.556 272.5,326.5C 273.902,327.842 273.569,328.676 271.5,329C 272.252,329.671 272.586,330.504 272.5,331.5C 271.833,331.5 271.167,331.5 270.5,331.5C 267.833,331.5 265.167,331.5 262.5,331.5C 260.143,331.663 257.81,331.497 255.5,331C 256.328,330.085 257.328,329.419 258.5,329C 256.309,324.543 254.642,319.876 253.5,315C 253.639,313.699 254.305,312.866 255.5,312.5C 255.987,313.473 256.487,314.473 257,315.5C 257.448,313.776 258.282,313.109 259.5,313.5C 259.094,310.771 258.094,307.937 256.5,305C 258.329,299.199 258.662,293.532 257.5,288C 258.462,283.684 260.129,279.35 262.5,275C 262.069,269.487 262.069,263.821 262.5,258C 262.333,253.5 262.167,249 262,244.5C 261.724,246.767 261.057,249.1 260,251.5C 259.713,249.109 259.213,246.776 258.5,244.5C 257.349,243.269 256.183,243.269 255,244.5C 254.333,243.167 254.333,241.833 255,240.5C 257.526,243.063 259.193,242.397 260,238.5C 260.333,239.5 260.667,240.5 261,241.5C 262.883,240.347 263.716,238.681 263.5,236.5C 264.822,236.33 265.989,236.663 267,237.5C 268.44,235.954 270.273,235.121 272.5,235C 270.068,233.913 270.402,233.413 273.5,233.5C 273.649,232.448 273.483,231.448 273,230.5C 272.667,230.833 272.333,231.167 272,231.5C 271.243,229.685 270.41,228.019 269.5,226.5C 275.461,221.845 281.461,217.178 287.5,212.5 Z"/></g>
<g><path style="opacity:1" fill="#548763" d="M 3.5,267.5 C 4.75872,271.244 6.42539,274.911 8.5,278.5C 7.75415,279.736 7.42082,281.07 7.5,282.5C 5.16816,277.874 3.83482,272.874 3.5,267.5 Z"/></g>
<g><path style="opacity:1" fill="#79b78f" d="M 328.5,277.5 C 328.405,279.786 327.738,281.786 326.5,283.5C 326.025,280.918 326.692,278.918 328.5,277.5 Z"/></g>
<g><path style="opacity:1" fill="#2d7c44" d="M 183.5,258.5 C 183.071,267.739 183.071,276.572 183.5,285C 183,285.5 182.5,286 182,286.5C 180.632,285.007 180.465,283.507 181.5,282C 179.341,278.682 178.675,278.849 179.5,282.5C 179.032,284.134 178.032,285.3 176.5,286C 178.569,286.324 178.902,287.158 177.5,288.5C 175.892,289.242 174.225,289.409 172.5,289C 167.829,292.639 167.662,295.806 172,298.5C 172.333,301.167 172.667,303.833 173,306.5C 176.078,300.891 178.412,301.224 180,307.5C 180.667,306.167 181.667,305.167 183,304.5C 183.333,307.5 183.667,310.5 184,313.5C 185.979,314.714 187.479,316.381 188.5,318.5C 189.425,317.359 190.259,317.359 191,318.5C 191.18,322.318 192.846,324.318 196,324.5C 196.808,326.579 196.641,328.579 195.5,330.5C 192.746,330.897 189.746,331.23 186.5,331.5C 186.611,330.883 186.944,330.383 187.5,330C 186.176,326.572 184.343,323.405 182,320.5C 181.282,321.451 180.449,321.617 179.5,321C 178.54,319.581 177.707,318.081 177,316.5C 176.333,317.833 175.667,317.833 175,316.5C 173.816,318.654 172.65,318.32 171.5,315.5C 172.609,314.035 172.109,313.035 170,312.5C 168.442,313.345 167.442,312.679 167,310.5C 166.282,311.451 165.449,311.617 164.5,311C 163.736,308.931 163.236,306.764 163,304.5C 162.333,303.833 161.667,303.167 161,302.5C 160.667,304.5 160.333,306.5 160,308.5C 159.969,304.196 158.969,300.196 157,296.5C 155.455,297.821 154.289,297.488 153.5,295.5C 154.246,294.264 154.579,292.93 154.5,291.5C 156.954,291.679 159.121,291.013 161,289.5C 161.945,289.905 162.612,290.572 163,291.5C 165.347,288.497 167.513,285.497 169.5,282.5C 168.777,280.836 169.11,279.169 170.5,277.5C 170.241,274.37 170.241,271.204 170.5,268C 169.736,265.931 169.236,263.764 169,261.5C 167.927,262.28 166.76,262.113 165.5,261C 168.43,260.394 171.263,259.56 174,258.5C 175.61,258.13 177.11,258.797 178.5,260.5C 180.075,259.544 181.742,258.877 183.5,258.5 Z"/></g>
<g><path style="opacity:1" fill="#348350" d="M 224.5,249.5 C 223.676,252.764 223.342,256.098 223.5,259.5C 221.058,259.354 220.391,260.187 221.5,262C 220.075,266.779 218.742,271.612 217.5,276.5C 217.406,278.912 218.406,280.745 220.5,282C 220.346,284.846 220.346,287.68 220.5,290.5C 219.833,290.833 219.167,291.167 218.5,291.5C 219.167,293.833 219.833,296.167 220.5,298.5C 220.291,299.086 219.957,299.586 219.5,300C 221.988,303.142 223.821,306.642 225,310.5C 225.667,309.167 226.333,307.833 227,306.5C 227.725,308.949 228.725,311.283 230,313.5C 230.333,313.167 230.667,312.833 231,312.5C 232.5,315.333 234.667,317.5 237.5,319C 236.584,319.278 235.918,319.778 235.5,320.5C 234.448,321.53 233.114,322.197 231.5,322.5C 226.389,321.272 223.555,317.939 223,312.5C 222.667,313.833 222.333,315.167 222,316.5C 221.535,315.069 220.701,313.903 219.5,313C 219.957,312.586 220.291,312.086 220.5,311.5C 219.412,307.614 218.579,307.614 218,311.5C 217.059,308.185 216.226,304.852 215.5,301.5C 215.167,301.167 214.833,300.833 214.5,300.5C 213.667,301.5 212.833,302.5 212,303.5C 211.727,301.671 210.893,300.171 209.5,299C 210.167,298.333 210.833,297.667 211.5,297C 208.338,293.836 207.004,290.17 207.5,286C 204.465,282.394 203.131,278.227 203.5,273.5C 206.361,273.513 207.361,274.679 206.5,277C 207.449,277.617 208.282,277.451 209,276.5C 209.667,277.167 210.333,277.833 211,278.5C 211.441,274.952 212.941,271.952 215.5,269.5C 215.058,266.009 214.725,262.509 214.5,259C 216.305,256.915 216.972,254.748 216.5,252.5C 218.848,250.903 221.514,249.903 224.5,249.5 Z"/></g>
<g><path style="opacity:1" fill="#3e7751" d="M 38.5,321.5 C 32.0021,318.675 26.6687,314.342 22.5,308.5C 23.3132,307.347 24.3132,307.347 25.5,308.5C 29.1947,313.193 33.8613,316.693 39.5,319C 37.3808,319.342 37.0474,320.175 38.5,321.5 Z"/></g>
<g><path style="opacity:1" fill="#4a9a66" d="M 306.5,313.5 C 296.939,322.616 285.606,328.616 272.5,331.5C 272.586,330.504 272.252,329.671 271.5,329C 273.569,328.676 273.902,327.842 272.5,326.5C 273.189,324.556 273.689,322.556 274,320.5C 275.073,320.799 276.24,320.799 277.5,320.5C 280.809,320.308 283.309,321.641 285,324.5C 285.196,322.714 286.029,321.381 287.5,320.5C 287.998,321.603 288.331,322.603 288.5,323.5C 290.115,322.846 291.782,322.346 293.5,322C 293.167,321.667 292.833,321.333 292.5,321C 295.819,315.512 300.485,313.012 306.5,313.5 Z"/></g>
<g><path style="opacity:1" fill="#769d85" d="M 53.5,328.5 C 56.1522,328.41 58.4855,329.076 60.5,330.5C 57.8478,330.59 55.5145,329.924 53.5,328.5 Z"/></g>
<g><path style="opacity:1" fill="#72a183" d="M 262.5,331.5 C 265.167,331.5 267.833,331.5 270.5,331.5C 266.079,332.945 261.412,333.778 256.5,334C 196.665,334.832 136.999,334.665 77.5,333.5C 114.833,333.5 152.167,333.5 189.5,333.5C 205.5,333.5 221.5,333.5 237.5,333.5C 242.363,333.819 247.03,333.486 251.5,332.5C 255.371,332.815 259.038,332.482 262.5,331.5 Z"/></g>
</svg>
