<?xml version="1.0" encoding="UTF-8"?>
<!DOCTYPE svg PUBLIC "-//W3C//DTD SVG 1.1//EN" "http://www.w3.org/Graphics/SVG/1.1/DTD/svg11.dtd">
<svg xmlns="http://www.w3.org/2000/svg" version="1.1" width="806px" height="230px" style="shape-rendering:geometricPrecision; text-rendering:geometricPrecision; image-rendering:optimizeQuality; fill-rule:evenodd; clip-rule:evenodd" xmlns:xlink="http://www.w3.org/1999/xlink">
<g><path style="opacity:1" fill="#194b31" d="M 191.5,-0.5 C 191.833,-0.5 192.167,-0.5 192.5,-0.5C 192.315,0.170143 191.981,0.170143 191.5,-0.5 Z"/></g>
<g><path style="opacity:1" fill="#20633e" d="M 111.5,15.5 C 109.031,16.3171 106.365,16.8171 103.5,17C 104.458,18.1475 104.125,19.1475 102.5,20C 104.441,21.8159 105.108,23.8159 104.5,26C 103.151,26.7724 102.318,27.9391 102,29.5C 94.5424,35.2109 87.3757,40.5442 80.5,45.5C 79.1196,44.2935 77.9529,44.6269 77,46.5C 75.1918,46.1119 73.5252,46.1119 72,46.5C 72.4368,49.1733 71.2701,51.3399 68.5,53C 69.1667,53.3333 69.8333,53.6667 70.5,54C 69.2309,56.1385 69.2309,58.3052 70.5,60.5C 71.086,60.2907 71.586,59.9574 72,59.5C 72.2784,60.4158 72.7784,61.0825 73.5,61.5C 65.8322,88.8426 58.1655,116.176 50.5,143.5C 49.2113,142.499 47.8779,142.666 46.5,144C 45.4582,145.918 44.2915,147.751 43,149.5C 42.6174,148.944 42.1174,148.611 41.5,148.5C 40.4415,147.4 39.6082,146.066 39,144.5C 37.3333,145.833 35.6667,145.833 34,144.5C 33.7398,142.382 32.7398,140.716 31,139.5C 30.7931,135.911 30.2931,132.411 29.5,129C 31.2446,125.627 32.7446,122.127 34,118.5C 34.7431,120.645 35.5765,120.811 36.5,119C 37.0172,116.923 37.6839,114.923 38.5,113C 37.8742,112.25 37.3742,111.416 37,110.5C 33.7155,113.193 32.3821,112.526 33,108.5C 31.4126,109.727 30.0793,109.394 29,107.5C 28.6667,108.5 28.3333,109.5 28,110.5C 27.5348,109.069 26.7014,107.903 25.5,107C 26.6537,106.086 26.487,105.253 25,104.5C 24.6667,105.167 24.3333,105.833 24,106.5C 21.571,103.857 19.7376,104.357 18.5,108C 19.6886,109.895 20.6886,111.895 21.5,114C 20.8333,114.667 20.1667,115.333 19.5,116C 17.9446,115.575 16.4446,114.742 15,113.5C 13.6667,114.167 12.3333,114.833 11,115.5C 10.228,115.355 9.5613,115.022 9,114.5C 8.15796,137.187 8.4913,159.854 10,182.5C 11.2778,186.165 12.4445,189.832 13.5,193.5C 10.6433,190.454 8.80996,186.787 8,182.5C 7.33333,139.167 7.33333,95.8333 8,52.5C 13.3284,34.5048 24.8284,22.3381 42.5,16C 65.4976,15.5 88.4976,15.3334 111.5,15.5 Z"/></g>
<g><path style="opacity:1" fill="#256a43" d="M 207.5,40.5 C 209.25,41.6594 210.25,43.326 210.5,45.5C 213.109,62.3372 214.443,79.3372 214.5,96.5C 214.167,96.5 213.833,96.5 213.5,96.5C 213.665,92.8183 213.499,89.1516 213,85.5C 211.28,101.166 206.114,115.499 197.5,128.5C 196.833,129.167 196.167,129.833 195.5,130.5C 194.05,130.026 192.883,128.693 192,126.5C 191.617,127.056 191.117,127.389 190.5,127.5C 189.274,125.813 189.608,124.313 191.5,123C 191.241,121.739 190.574,120.739 189.5,120C 190.634,118.984 190.301,118.317 188.5,118C 189.517,116.951 189.684,115.784 189,114.5C 188.667,114.833 188.333,115.167 188,115.5C 187.598,114.128 187.098,112.795 186.5,111.5C 187.735,108.956 188.901,108.956 190,111.5C 191.615,110.344 191.615,109.011 190,107.5C 189.333,106.167 188.667,106.167 188,107.5C 186.138,101.107 184.638,101.441 183.5,108.5C 181.833,109.833 180.167,109.833 178.5,108.5C 178.582,104.601 178.082,100.601 177,96.5C 174.637,97.2322 172.137,97.2322 169.5,96.5C 169.771,98.3797 169.104,99.713 167.5,100.5C 167.211,98.475 166.878,96.475 166.5,94.5C 170.546,77.424 164.546,65.2573 148.5,58C 124.563,56.3633 100.563,56.0299 76.5,57C 75.2189,58.4087 74.2189,59.9087 73.5,61.5C 72.7784,61.0825 72.2784,60.4158 72,59.5C 71.586,59.9574 71.086,60.2907 70.5,60.5C 69.2309,58.3052 69.2309,56.1385 70.5,54C 69.8333,53.6667 69.1667,53.3333 68.5,53C 71.2701,51.3399 72.4368,49.1733 72,46.5C 73.5252,46.1119 75.1918,46.1119 77,46.5C 77.9529,44.6269 79.1196,44.2935 80.5,45.5C 84.1982,46.6949 88.0316,46.6949 92,45.5C 94.653,43.845 96.9864,41.845 99,39.5C 100.648,40.717 102.481,41.5503 104.5,42C 103.601,44.5378 103.934,47.0378 105.5,49.5C 102.924,50.8834 103.258,51.7167 106.5,52C 104.082,54.3098 104.748,54.9764 108.5,54C 109.833,53.3333 109.833,52.6667 108.5,52C 109.833,51.6667 111.167,51.3333 112.5,51C 111.692,50.6924 111.025,50.1924 110.5,49.5C 112.041,47.796 113.375,45.9626 114.5,44C 112.663,41.8006 111.663,38.8006 111.5,35C 111.758,31.1325 112.424,27.6325 113.5,24.5C 111.774,22.7721 110.441,20.7721 109.5,18.5C 112.107,17.6816 114.774,17.1816 117.5,17C 131.5,16.3333 145.5,16.3333 159.5,17C 161.511,20.7139 164.677,22.5472 169,22.5C 170.699,21.5939 172.533,21.2606 174.5,21.5C 175.055,25.3872 173.721,28.3872 170.5,30.5C 171.685,31.853 173.019,33.0197 174.5,34C 177.43,34.6063 180.263,35.4396 183,36.5C 184.073,34.4534 185.239,32.4534 186.5,30.5C 188.409,29.6518 190.409,29.3184 192.5,29.5C 192.146,32.4206 193.146,34.7539 195.5,36.5C 200.473,37.4835 200.806,36.3169 196.5,33C 196.833,32.8333 197.167,32.6667 197.5,32.5C 198.425,33.6405 199.259,33.6405 200,32.5C 200.333,33.5 200.667,34.5 201,35.5C 201.333,35.1667 201.667,34.8333 202,34.5C 202.702,38.2652 204.369,41.9318 207,45.5C 208.628,44.0383 208.795,42.3717 207.5,40.5 Z"/></g>
<g><path style="opacity:1" fill="#236a3f" d="M 111.5,15.5 C 132.836,15.3334 154.169,15.5 175.5,16C 187.649,18.4836 197.482,24.6502 205,34.5C 206.122,36.4068 206.955,38.4068 207.5,40.5C 208.795,42.3717 208.628,44.0383 207,45.5C 204.369,41.9318 202.702,38.2652 202,34.5C 201.667,34.8333 201.333,35.1667 201,35.5C 200.667,34.5 200.333,33.5 200,32.5C 199.259,33.6405 198.425,33.6405 197.5,32.5C 197.167,32.6667 196.833,32.8333 196.5,33C 200.806,36.3169 200.473,37.4835 195.5,36.5C 193.146,34.7539 192.146,32.4206 192.5,29.5C 190.409,29.3184 188.409,29.6518 186.5,30.5C 185.239,32.4534 184.073,34.4534 183,36.5C 180.263,35.4396 177.43,34.6063 174.5,34C 173.019,33.0197 171.685,31.853 170.5,30.5C 173.721,28.3872 175.055,25.3872 174.5,21.5C 172.533,21.2606 170.699,21.5939 169,22.5C 164.677,22.5472 161.511,20.7139 159.5,17C 145.5,16.3333 131.5,16.3333 117.5,17C 114.774,17.1816 112.107,17.6816 109.5,18.5C 110.441,20.7721 111.774,22.7721 113.5,24.5C 112.424,27.6325 111.758,31.1325 111.5,35C 111.663,38.8006 112.663,41.8006 114.5,44C 113.375,45.9626 112.041,47.796 110.5,49.5C 111.025,50.1924 111.692,50.6924 112.5,51C 111.167,51.3333 109.833,51.6667 108.5,52C 109.833,52.6667 109.833,53.3333 108.5,54C 104.748,54.9764 104.082,54.3098 106.5,52C 103.258,51.7167 102.924,50.8834 105.5,49.5C 103.934,47.0378 103.601,44.5378 104.5,42C 102.481,41.5503 100.648,40.717 99,39.5C 96.9864,41.845 94.653,43.845 92,45.5C 88.0316,46.6949 84.1982,46.6949 80.5,45.5C 87.3757,40.5442 94.5424,35.2109 102,29.5C 102.318,27.9391 103.151,26.7724 104.5,26C 105.108,23.8159 104.441,21.8159 102.5,20C 104.125,19.1475 104.458,18.1475 103.5,17C 106.365,16.8171 109.031,16.3171 111.5,15.5 Z"/></g>
<g><path style="opacity:1" fill="#ebefe3" d="M 358.5,50.5 C 365.167,50.5 371.833,50.5 378.5,50.5C 378.5,87.1667 378.5,123.833 378.5,160.5C 371.833,160.5 365.167,160.5 358.5,160.5C 358.5,123.833 358.5,87.1667 358.5,50.5 Z"/></g>
<g><path style="opacity:1" fill="#e7e9dd" d="M 559.5,51.5 C 573.87,51.1534 588.203,51.6534 602.5,53C 629.986,60.0971 643.986,77.9305 644.5,106.5C 643.634,137.527 627.968,155.693 597.5,161C 583.171,161.5 568.837,161.667 554.5,161.5C 554.5,125.167 554.5,88.8333 554.5,52.5C 556.415,52.7845 558.081,52.4511 559.5,51.5 Z M 575.5,71.5 C 612.469,68.6306 627.303,85.2972 620,121.5C 616.238,132.3 608.738,138.8 597.5,141C 590.174,141.5 582.841,141.666 575.5,141.5C 575.5,118.167 575.5,94.8333 575.5,71.5 Z"/></g>
<g><path style="opacity:1" fill="#edede6" d="M 290.5,71.5 C 290.5,83.1667 290.5,94.8333 290.5,106.5C 289.883,106.389 289.383,106.056 289,105.5C 288.667,102.5 288.333,99.5 288,96.5C 286.742,101.351 287.576,105.685 290.5,109.5C 289.91,110.799 288.91,111.632 287.5,112C 289.107,113.049 289.773,114.549 289.5,116.5C 290.93,116.421 292.264,116.754 293.5,117.5C 294.711,118.274 294.711,119.107 293.5,120C 294.672,120.419 295.672,121.085 296.5,122C 293.78,122.797 291.28,123.963 289,125.5C 288.53,131.046 289.03,136.379 290.5,141.5C 290.5,147.833 290.5,154.167 290.5,160.5C 290.167,160.5 289.833,160.5 289.5,160.5C 288.942,159.21 287.942,158.377 286.5,158C 278.833,157.187 279.166,156.521 287.5,156C 286.464,154.383 285.297,154.216 284,155.5C 283.167,154.667 282.333,153.833 281.5,153C 280.939,151.434 281.606,150.101 283.5,149C 284.825,149.148 285.992,148.982 287,148.5C 287.667,141.167 287.667,133.833 287,126.5C 285.387,128.924 284.053,131.257 283,133.5C 282.085,132.672 281.419,131.672 281,130.5C 280.107,131.711 279.274,131.711 278.5,130.5C 277.27,127.477 276.103,124.477 275,121.5C 273.898,125.416 273.231,129.416 273,133.5C 271.19,107.85 271.19,82.1834 273,56.5C 274.978,58.7461 275.978,61.0795 276,63.5C 278.734,62.6383 278.901,61.805 276.5,61C 279,60.5 281.5,60 284,59.5C 286.806,60.2411 289.473,61.2411 292,62.5C 294.628,61.2055 296.628,59.2055 298,56.5C 299.395,58.1397 300.895,59.6397 302.5,61C 300.651,62.093 298.984,63.4263 297.5,65C 297.833,66 298.167,67 298.5,68C 296.5,68.3333 294.5,68.6667 292.5,69C 293.833,69.3333 295.167,69.6667 296.5,70C 294.292,70.1909 292.292,70.6909 290.5,71.5 Z"/></g>
<g><path style="opacity:1" fill="#edece6" d="M 372.5,60.5 C 374.017,60.5106 375.184,61.1772 376,62.5C 376.667,72.5 376.667,82.5 376,92.5C 375.667,92.1667 375.333,91.8333 375,91.5C 374.082,93.6324 372.749,94.299 371,93.5C 369.694,94.9122 368.86,96.5789 368.5,98.5C 369.384,101.21 370.384,103.876 371.5,106.5C 375.82,109.816 377.32,114.149 376,119.5C 375.667,118.5 375.333,117.5 375,116.5C 374.333,119.5 374.333,122.5 375,125.5C 375.333,124.167 375.667,122.833 376,121.5C 376.833,133.514 376.666,145.514 375.5,157.5C 375.446,156.47 375.112,155.303 374.5,154C 372.925,154.379 371.425,154.212 370,153.5C 369.667,147.5 369.333,141.5 369,135.5C 366.722,132.005 365.222,128.172 364.5,124C 365.919,118.118 365.753,112.285 364,106.5C 363.667,107.167 363.333,107.833 363,108.5C 361.876,105.558 361.542,102.558 362,99.5C 362.333,100.167 362.667,100.833 363,101.5C 363.667,97.8333 363.667,94.1667 363,90.5C 362.667,92.5 362.333,94.5 362,96.5C 361.116,89.4183 361.449,82.4183 363,75.5C 363.333,76.5 363.667,77.5 364,78.5C 364.667,74.8333 364.667,71.1667 364,67.5C 363.641,70.5443 362.974,70.8776 362,68.5C 361.333,66.8333 361.333,65.1667 362,63.5C 362.667,66.1667 363.333,66.1667 364,63.5C 364.561,64.0219 365.228,64.3552 366,64.5C 367.756,62.3721 369.923,61.0387 372.5,60.5 Z"/></g>
<g><path style="opacity:1" fill="#e7eade" d="M 314.5,125.5 C 306.5,125.5 298.5,125.5 290.5,125.5C 290.5,130.833 290.5,136.167 290.5,141.5C 289.03,136.379 288.53,131.046 289,125.5C 291.28,123.963 293.78,122.797 296.5,122C 295.672,121.085 294.672,120.419 293.5,120C 294.711,119.107 294.711,118.274 293.5,117.5C 292.264,116.754 290.93,116.421 289.5,116.5C 289.773,114.549 289.107,113.049 287.5,112C 288.91,111.632 289.91,110.799 290.5,109.5C 287.576,105.685 286.742,101.351 288,96.5C 288.333,99.5 288.667,102.5 289,105.5C 289.383,106.056 289.883,106.389 290.5,106.5C 297.167,107.833 303.833,107.833 310.5,106.5C 320.365,105.093 325.365,99.4261 325.5,89.5C 325.719,79.2177 320.719,73.3844 310.5,72C 304.175,71.5005 297.842,71.3338 291.5,71.5C 291.167,71.5 290.833,71.5 290.5,71.5C 292.292,70.6909 294.292,70.1909 296.5,70C 295.167,69.6667 293.833,69.3333 292.5,69C 294.5,68.6667 296.5,68.3333 298.5,68C 298.167,67 297.833,66 297.5,65C 298.984,63.4263 300.651,62.093 302.5,61C 300.895,59.6397 299.395,58.1397 298,56.5C 296.628,59.2055 294.628,61.2055 292,62.5C 289.473,61.2411 286.806,60.2411 284,59.5C 281.5,60 279,60.5 276.5,61C 278.901,61.805 278.734,62.6383 276,63.5C 275.978,61.0795 274.978,58.7461 273,56.5C 271.19,82.1834 271.19,107.85 273,133.5C 273.231,129.416 273.898,125.416 275,121.5C 276.103,124.477 277.27,127.477 278.5,130.5C 279.274,131.711 280.107,131.711 281,130.5C 281.419,131.672 282.085,132.672 283,133.5C 284.053,131.257 285.387,128.924 287,126.5C 287.667,133.833 287.667,141.167 287,148.5C 285.992,148.982 284.825,149.148 283.5,149C 281.606,150.101 280.939,151.434 281.5,153C 282.333,153.833 283.167,154.667 284,155.5C 285.297,154.216 286.464,154.383 287.5,156C 279.166,156.521 278.833,157.187 286.5,158C 287.942,158.377 288.942,159.21 289.5,160.5C 283.167,160.5 276.833,160.5 270.5,160.5C 270.5,124.5 270.5,88.5 270.5,52.5C 286.348,51.3251 302.348,51.4918 318.5,53C 343.808,60.8626 352.974,77.696 346,103.5C 339.732,116.94 329.232,124.273 314.5,125.5 Z M 291.5,71.5 C 297.842,71.3338 304.175,71.5005 310.5,72C 320.719,73.3844 325.719,79.2177 325.5,89.5C 325.365,99.4261 320.365,105.093 310.5,106.5C 304.167,106.5 297.833,106.5 291.5,106.5C 291.5,94.8333 291.5,83.1667 291.5,71.5 Z"/></g>
<g><path style="opacity:1" fill="#e5e7dc" d="M 421.5,81.5 C 434.982,80.3309 445.815,84.9975 454,95.5C 455.578,98.6572 456.578,101.991 457,105.5C 457.667,123.833 457.667,142.167 457,160.5C 450.784,161.425 444.617,161.592 438.5,161C 437.726,158.595 437.226,156.095 437,153.5C 423.937,165.011 410.604,165.345 397,154.5C 388.074,142.343 388.908,130.843 399.5,120C 411.008,113.847 423.342,111.347 436.5,112.5C 435.975,100.723 429.975,96.5567 418.5,100C 416.037,101.921 414.037,104.254 412.5,107C 391.515,111.942 387.848,106.275 401.5,90C 407.439,85.1902 414.106,82.3568 421.5,81.5 Z M 422.5,127.5 C 427.167,127.5 431.833,127.5 436.5,127.5C 437.113,137.722 432.28,143.055 422,143.5C 416.344,144.263 412.844,141.93 411.5,136.5C 413.119,130.873 416.785,127.873 422.5,127.5 Z"/></g>
<g><path style="opacity:1" fill="#e5e8dd" d="M 753.5,193.5 C 746.087,194.128 739.087,193.461 732.5,191.5C 737.596,180.048 742.596,168.548 747.5,157C 737.726,133.685 727.559,110.518 717,87.5C 716.51,86.2068 716.343,84.8734 716.5,83.5C 723.863,83.1694 731.197,83.5027 738.5,84.5C 745.097,99.7925 751.597,115.126 758,130.5C 764.31,115.207 770.643,99.8735 777,84.5C 784.086,83.3544 791.253,83.1877 798.5,84C 798.957,84.414 799.291,84.914 799.5,85.5C 784.666,121.821 769.333,157.821 753.5,193.5 Z"/></g>
<g><path style="opacity:1" fill="#638271" d="M 290.5,71.5 C 290.833,71.5 291.167,71.5 291.5,71.5C 291.5,83.1667 291.5,94.8333 291.5,106.5C 297.833,106.5 304.167,106.5 310.5,106.5C 303.833,107.833 297.167,107.833 290.5,106.5C 290.5,94.8333 290.5,83.1667 290.5,71.5 Z"/></g>
<g><path style="opacity:1" fill="#e5e7db" d="M 678.5,81.5 C 691.368,80.2862 702.202,84.2862 711,93.5C 713.66,97.8139 715.327,102.481 716,107.5C 716.5,125.164 716.667,142.83 716.5,160.5C 709.874,161.183 703.207,161.183 696.5,160.5C 696.808,158.076 696.474,155.743 695.5,153.5C 686.502,161.48 676.168,163.647 664.5,160C 649.994,152.165 646.161,140.665 653,125.5C 657.816,119.508 663.983,115.674 671.5,114C 679.453,112.777 687.453,112.277 695.5,112.5C 694.206,99.6799 687.539,95.8466 675.5,101C 673.438,102.532 672.104,104.532 671.5,107C 649.076,112.017 645.41,106.017 660.5,89C 666.021,85.0643 672.021,82.5643 678.5,81.5 Z M 680.5,127.5 C 685.5,127.5 690.5,127.5 695.5,127.5C 695.938,137.969 690.938,143.302 680.5,143.5C 671.381,143.241 668.714,139.074 672.5,131C 675.158,129.522 677.825,128.355 680.5,127.5 Z"/></g>
<g><path style="opacity:1" fill="#25693e" d="M 190.5,127.5 C 189.057,128.335 188.057,129.668 187.5,131.5C 184.881,132.789 182.381,133.455 180,133.5C 178.113,130.707 175.613,127.707 172.5,124.5C 173.833,122.833 173.833,121.167 172.5,119.5C 173.313,118.186 174.313,117.019 175.5,116C 174.333,115.5 173.5,114.667 173,113.5C 172.309,115.891 171.309,115.891 170,113.5C 169.511,115.604 168.345,115.938 166.5,114.5C 162.811,116.38 162.478,115.213 165.5,111C 164.692,110.692 164.025,110.192 163.5,109.5C 164.491,106.686 165.824,103.686 167.5,100.5C 169.104,99.713 169.771,98.3797 169.5,96.5C 172.137,97.2322 174.637,97.2322 177,96.5C 178.082,100.601 178.582,104.601 178.5,108.5C 180.167,109.833 181.833,109.833 183.5,108.5C 184.638,101.441 186.138,101.107 188,107.5C 188.667,106.167 189.333,106.167 190,107.5C 191.615,109.011 191.615,110.344 190,111.5C 188.901,108.956 187.735,108.956 186.5,111.5C 187.098,112.795 187.598,114.128 188,115.5C 188.333,115.167 188.667,114.833 189,114.5C 189.684,115.784 189.517,116.951 188.5,118C 190.301,118.317 190.634,118.984 189.5,120C 190.574,120.739 191.241,121.739 191.5,123C 189.608,124.313 189.274,125.813 190.5,127.5 Z"/></g>
<g><path style="opacity:1" fill="#266a44" d="M 166.5,94.5 C 166.878,96.475 167.211,98.475 167.5,100.5C 165.824,103.686 164.491,106.686 163.5,109.5C 164.025,110.192 164.692,110.692 165.5,111C 162.478,115.213 162.811,116.38 166.5,114.5C 168.345,115.938 169.511,115.604 170,113.5C 171.309,115.891 172.309,115.891 173,113.5C 173.5,114.667 174.333,115.5 175.5,116C 174.313,117.019 173.313,118.186 172.5,119.5C 173.833,121.167 173.833,122.833 172.5,124.5C 175.613,127.707 178.113,130.707 180,133.5C 182.381,133.455 184.881,132.789 187.5,131.5C 188.057,129.668 189.057,128.335 190.5,127.5C 191.117,127.389 191.617,127.056 192,126.5C 192.883,128.693 194.05,130.026 195.5,130.5C 189.473,138.527 182.473,145.527 174.5,151.5C 169.817,154.525 165.15,157.525 160.5,160.5C 153.678,162.991 147.011,165.658 140.5,168.5C 135.799,168.957 131.132,169.624 126.5,170.5C 118.922,171.985 111.255,172.985 103.5,173.5C 99.0077,173.285 94.5077,172.951 90,172.5C 88.6012,173.227 87.1012,173.727 85.5,174C 86.1667,174.333 86.8333,174.667 87.5,175C 86.8803,177.473 86.2136,179.973 85.5,182.5C 85.2889,180.956 85.2889,179.29 85.5,177.5C 85.0995,175.566 84.0995,174.066 82.5,173C 83.5,172.667 84.5,172.333 85.5,172C 79.8333,171.333 74.1667,171.333 68.5,172C 67.3741,177.644 67.3741,183.311 68.5,189C 67.3742,195.747 66.5408,202.581 66,209.5C 64.3984,211.263 63.8984,213.096 64.5,215C 63.6919,215.308 63.0253,215.808 62.5,216.5C 67.1667,217.833 71.8333,217.833 76.5,216.5C 74.6249,215.031 74.6249,213.198 76.5,211C 75.8617,209.293 75.8617,207.46 76.5,205.5C 77.8333,205.5 79.1667,205.5 80.5,205.5C 80.7188,201.516 80.7188,197.682 80.5,194C 81.2106,192.745 82.044,191.579 83,190.5C 83.2361,193.208 84.0695,195.708 85.5,198C 84.5192,200.62 83.3526,203.12 82,205.5C 81.6445,209.146 80.8112,212.646 79.5,216C 79.8333,216.333 80.1667,216.667 80.5,217C 79.5842,217.278 78.9175,217.778 78.5,218.5C 69.5,218.5 60.5,218.5 51.5,218.5C 45.2912,216.778 39.2912,214.444 33.5,211.5C 32.9366,210.061 32.6032,208.561 32.5,207C 33.4176,204.239 34.0843,201.406 34.5,198.5C 35.552,198.649 36.552,198.483 37.5,198C 37.1667,197.667 36.8333,197.333 36.5,197C 37.5,196.667 38.5,196.333 39.5,196C 39.1667,195.667 38.8333,195.333 38.5,195C 39.7014,194.097 40.5348,192.931 41,191.5C 41.5556,193.595 42.0556,193.762 42.5,192C 41.1525,190.445 40.4858,188.611 40.5,186.5C 41.7127,182.561 42.7127,178.561 43.5,174.5C 42.91,173.201 41.91,172.368 40.5,172C 40.8333,171.667 41.1667,171.333 41.5,171C 40.8095,169.933 40.3095,168.766 40,167.5C 38.841,168.566 38.0076,168.233 37.5,166.5C 37.286,163.222 36.286,159.888 34.5,156.5C 34.8457,155.304 35.3457,155.304 36,156.5C 37.6157,153.574 39.449,150.907 41.5,148.5C 42.1174,148.611 42.6174,148.944 43,149.5C 44.2915,147.751 45.4582,145.918 46.5,144C 47.8779,142.666 49.2113,142.499 50.5,143.5C 48.4456,150.164 46.2789,156.831 44,163.5C 43.1923,165.579 43.359,167.579 44.5,169.5C 47.391,168.994 50.0576,167.994 52.5,166.5C 63.0765,152.086 76.0765,140.586 91.5,132C 104.109,127.63 117.109,125.13 130.5,124.5C 130.918,125.222 131.584,125.722 132.5,126C 130.833,126.333 129.167,126.667 127.5,127C 128.424,127.85 128.424,128.85 127.5,130C 125.718,132.245 123.718,134.245 121.5,136C 125.412,138.674 129.245,139.174 133,137.5C 134.473,139.136 136.307,140.136 138.5,140.5C 141.381,139.142 144.381,137.975 147.5,137C 146.304,136.346 146.304,135.846 147.5,135.5C 150.362,137.042 151.362,139.209 150.5,142C 151.009,143.169 151.842,144.002 153,144.5C 155.097,143.009 157.43,142.009 160,141.5C 160.374,140.584 160.874,139.75 161.5,139C 161.201,137.68 161.034,136.18 161,134.5C 157.952,132.904 155.452,130.737 153.5,128C 150.833,127.667 148.167,127.333 145.5,127C 144.747,125.513 143.914,125.346 143,126.5C 142,125.5 141,124.5 140,123.5C 139.667,124.167 139.333,124.833 139,125.5C 137.275,124.536 135.441,123.869 133.5,123.5C 148.614,118.379 159.614,108.712 166.5,94.5 Z"/></g>
<g><path style="opacity:1" fill="#23693e" d="M 41.5,148.5 C 39.449,150.907 37.6157,153.574 36,156.5C 35.3457,155.304 34.8457,155.304 34.5,156.5C 36.286,159.888 37.286,163.222 37.5,166.5C 36.8826,166.611 36.3826,166.944 36,167.5C 35.2276,166.151 34.0609,165.318 32.5,165C 31.8095,163.933 31.3095,162.766 31,161.5C 30.6667,162.5 30.3333,163.5 30,164.5C 28.7681,161.7 28.1015,158.7 28,155.5C 27.7031,158.914 27.0365,162.247 26,165.5C 25,164.167 24,164.167 23,165.5C 22.1266,168.6 20.96,171.6 19.5,174.5C 21.5464,177.424 23.2131,180.591 24.5,184C 24.201,185.32 24.0343,186.82 24,188.5C 21.2063,190.419 19.7063,193.086 19.5,196.5C 17.7085,196.634 16.0418,196.301 14.5,195.5C 13.6618,195.158 13.3284,194.492 13.5,193.5C 12.4445,189.832 11.2778,186.165 10,182.5C 8.4913,159.854 8.15796,137.187 9,114.5C 9.5613,115.022 10.228,115.355 11,115.5C 12.3333,114.833 13.6667,114.167 15,113.5C 16.4446,114.742 17.9446,115.575 19.5,116C 20.1667,115.333 20.8333,114.667 21.5,114C 20.6886,111.895 19.6886,109.895 18.5,108C 19.7376,104.357 21.571,103.857 24,106.5C 24.3333,105.833 24.6667,105.167 25,104.5C 26.487,105.253 26.6537,106.086 25.5,107C 26.7014,107.903 27.5348,109.069 28,110.5C 28.3333,109.5 28.6667,108.5 29,107.5C 30.0793,109.394 31.4126,109.727 33,108.5C 32.3821,112.526 33.7155,113.193 37,110.5C 37.3742,111.416 37.8742,112.25 38.5,113C 37.6839,114.923 37.0172,116.923 36.5,119C 35.5765,120.811 34.7431,120.645 34,118.5C 32.7446,122.127 31.2446,125.627 29.5,129C 30.2931,132.411 30.7931,135.911 31,139.5C 32.7398,140.716 33.7398,142.382 34,144.5C 35.6667,145.833 37.3333,145.833 39,144.5C 39.6082,146.066 40.4415,147.4 41.5,148.5 Z"/></g>
<g><path style="opacity:1" fill="#e5e8dd" d="M 461.5,83.5 C 468.508,83.3337 475.508,83.5004 482.5,84C 489.445,99.3956 496.278,114.896 503,130.5C 509,115.167 515,99.8333 521,84.5C 528.086,83.3544 535.253,83.1877 542.5,84C 543.022,84.5613 543.355,85.228 543.5,86C 528.402,121.793 513.402,157.626 498.5,193.5C 491.197,194.497 483.863,194.831 476.5,194.5C 476.343,193.127 476.51,191.793 477,190.5C 482.223,179.498 487.056,168.331 491.5,157C 481.984,132.636 471.651,108.636 460.5,85C 461.056,84.6174 461.389,84.1174 461.5,83.5 Z"/></g>
<g><path style="opacity:1" fill="#368e57" d="M 213.5,96.5 C 213.667,122.169 213.5,147.835 213,173.5C 212.333,180.525 210.5,187.192 207.5,193.5C 202.256,204.734 193.589,212.068 181.5,215.5C 175.576,217.892 169.576,218.059 163.5,216C 164.711,214.887 164.711,213.72 163.5,212.5C 166.645,210.522 169.312,208.022 171.5,205C 170.693,202.4 171.36,200.066 173.5,198C 173.016,190.183 169.849,183.349 164,177.5C 163.627,175.302 163.127,173.135 162.5,171C 163.333,167.847 162.333,165.18 159.5,163C 160.252,162.329 160.586,161.496 160.5,160.5C 165.15,157.525 169.817,154.525 174.5,151.5C 175.043,151.56 175.376,151.893 175.5,152.5C 174.5,153.833 173.5,155.167 172.5,156.5C 173.025,157.192 173.692,157.692 174.5,158C 173.333,158.5 172.5,159.333 172,160.5C 170.997,158.065 170.497,158.398 170.5,161.5C 170.667,162.5 170.833,163.5 171,164.5C 172.633,165.83 174.133,166.496 175.5,166.5C 175.291,167.086 174.957,167.586 174.5,168C 175.584,173.636 177.084,179.136 179,184.5C 180.316,181.972 181.483,181.972 182.5,184.5C 183.192,183.975 183.692,183.308 184,182.5C 184.667,183.833 185.333,185.167 186,186.5C 188.761,186.203 191.261,184.703 193.5,182C 197.054,181.485 199.554,179.651 201,176.5C 201.419,177.672 202.085,178.672 203,179.5C 203.912,176.681 205.078,174.014 206.5,171.5C 206.167,170.167 205.833,168.833 205.5,167.5C 203.161,165.416 200.661,163.416 198,161.5C 197.088,159.341 196.255,157.175 195.5,155C 198.443,152.488 200.276,149.654 201,146.5C 202.982,153.95 204.816,154.116 206.5,147C 205.833,144.667 205.167,142.333 204.5,140C 204.833,139.667 205.167,139.333 205.5,139C 203.023,137.357 200.69,135.524 198.5,133.5C 199.167,132.167 199.833,130.833 200.5,129.5C 199.528,129.407 198.528,129.074 197.5,128.5C 206.114,115.499 211.28,101.166 213,85.5C 213.499,89.1516 213.665,92.8183 213.5,96.5 Z"/></g>
<g><path style="opacity:1" fill="#174a32" d="M 210.5,45.5 C 213.396,50.3337 214.896,55.667 215,61.5C 215.52,87.4996 216.02,113.5 216.5,139.5C 216.5,148.673 216.166,157.673 215.5,166.5C 215.784,164.585 215.451,162.919 214.5,161.5C 214.5,139.833 214.5,118.167 214.5,96.5C 214.443,79.3372 213.109,62.3372 210.5,45.5 Z"/></g>
<g><path style="opacity:1" fill="#1d5b3c" d="M 213.5,96.5 C 213.833,96.5 214.167,96.5 214.5,96.5C 214.5,118.167 214.5,139.833 214.5,161.5C 214.216,163.415 214.549,165.081 215.5,166.5C 214.831,171.847 213.998,177.18 213,182.5C 212.19,186.787 210.357,190.454 207.5,193.5C 210.5,187.192 212.333,180.525 213,173.5C 213.5,147.835 213.667,122.169 213.5,96.5 Z"/></g>
<g><path style="opacity:1" fill="#24693e" d="M 133.5,123.5 C 135.441,123.869 137.275,124.536 139,125.5C 139.333,124.833 139.667,124.167 140,123.5C 141,124.5 142,125.5 143,126.5C 143.914,125.346 144.747,125.513 145.5,127C 148.167,127.333 150.833,127.667 153.5,128C 155.452,130.737 157.952,132.904 161,134.5C 161.034,136.18 161.201,137.68 161.5,139C 160.874,139.75 160.374,140.584 160,141.5C 157.43,142.009 155.097,143.009 153,144.5C 151.842,144.002 151.009,143.169 150.5,142C 151.362,139.209 150.362,137.042 147.5,135.5C 146.304,135.846 146.304,136.346 147.5,137C 144.381,137.975 141.381,139.142 138.5,140.5C 136.307,140.136 134.473,139.136 133,137.5C 129.245,139.174 125.412,138.674 121.5,136C 123.718,134.245 125.718,132.245 127.5,130C 128.424,128.85 128.424,127.85 127.5,127C 129.167,126.667 130.833,126.333 132.5,126C 131.584,125.722 130.918,125.222 130.5,124.5C 131.209,123.596 132.209,123.263 133.5,123.5 Z"/></g>
<g><path style="opacity:1" fill="#378e5c" d="M 197.5,128.5 C 198.528,129.074 199.528,129.407 200.5,129.5C 199.833,130.833 199.167,132.167 198.5,133.5C 200.69,135.524 203.023,137.357 205.5,139C 205.167,139.333 204.833,139.667 204.5,140C 205.167,142.333 205.833,144.667 206.5,147C 204.816,154.116 202.982,153.95 201,146.5C 200.276,149.654 198.443,152.488 195.5,155C 196.255,157.175 197.088,159.341 198,161.5C 200.661,163.416 203.161,165.416 205.5,167.5C 205.833,168.833 206.167,170.167 206.5,171.5C 205.078,174.014 203.912,176.681 203,179.5C 202.085,178.672 201.419,177.672 201,176.5C 199.554,179.651 197.054,181.485 193.5,182C 191.261,184.703 188.761,186.203 186,186.5C 185.333,185.167 184.667,183.833 184,182.5C 183.692,183.308 183.192,183.975 182.5,184.5C 181.483,181.972 180.316,181.972 179,184.5C 177.084,179.136 175.584,173.636 174.5,168C 174.957,167.586 175.291,167.086 175.5,166.5C 174.133,166.496 172.633,165.83 171,164.5C 170.833,163.5 170.667,162.5 170.5,161.5C 170.497,158.398 170.997,158.065 172,160.5C 172.5,159.333 173.333,158.5 174.5,158C 173.692,157.692 173.025,157.192 172.5,156.5C 173.5,155.167 174.5,153.833 175.5,152.5C 175.376,151.893 175.043,151.56 174.5,151.5C 182.473,145.527 189.473,138.527 195.5,130.5C 196.167,129.833 196.833,129.167 197.5,128.5 Z"/></g>
<g><path style="opacity:1" fill="#9aafa1" d="M 270.5,52.5 C 270.5,88.5 270.5,124.5 270.5,160.5C 276.833,160.5 283.167,160.5 289.5,160.5C 289.833,160.5 290.167,160.5 290.5,160.5C 290.5,160.833 290.5,161.167 290.5,161.5C 283.5,161.5 276.5,161.5 269.5,161.5C 269.168,124.996 269.502,88.6628 270.5,52.5 Z"/></g>
<g><path style="opacity:1" fill="#6a8878" d="M 314.5,125.5 C 307.018,126.492 299.352,126.825 291.5,126.5C 291.828,138.345 291.495,150.012 290.5,161.5C 290.5,161.167 290.5,160.833 290.5,160.5C 290.5,154.167 290.5,147.833 290.5,141.5C 290.5,136.167 290.5,130.833 290.5,125.5C 298.5,125.5 306.5,125.5 314.5,125.5 Z"/></g>
<g><path style="opacity:1" fill="#23633d" d="M 37.5,166.5 C 38.0076,168.233 38.841,168.566 40,167.5C 40.3095,168.766 40.8095,169.933 41.5,171C 41.1667,171.333 40.8333,171.667 40.5,172C 41.91,172.368 42.91,173.201 43.5,174.5C 42.7127,178.561 41.7127,182.561 40.5,186.5C 40.4858,188.611 41.1525,190.445 42.5,192C 42.0556,193.762 41.5556,193.595 41,191.5C 40.5348,192.931 39.7014,194.097 38.5,195C 38.8333,195.333 39.1667,195.667 39.5,196C 38.5,196.333 37.5,196.667 36.5,197C 36.8333,197.333 37.1667,197.667 37.5,198C 36.552,198.483 35.552,198.649 34.5,198.5C 34.0843,201.406 33.4176,204.239 32.5,207C 32.6032,208.561 32.9366,210.061 33.5,211.5C 39.2912,214.444 45.2912,216.778 51.5,218.5C 39.8826,217.523 29.8826,213.023 21.5,205C 18.1517,202.499 15.8184,199.332 14.5,195.5C 16.0418,196.301 17.7085,196.634 19.5,196.5C 19.7063,193.086 21.2063,190.419 24,188.5C 24.0343,186.82 24.201,185.32 24.5,184C 23.2131,180.591 21.5464,177.424 19.5,174.5C 20.96,171.6 22.1266,168.6 23,165.5C 24,164.167 25,164.167 26,165.5C 27.0365,162.247 27.7031,158.914 28,155.5C 28.1015,158.7 28.7681,161.7 30,164.5C 30.3333,163.5 30.6667,162.5 31,161.5C 31.3095,162.766 31.8095,163.933 32.5,165C 34.0609,165.318 35.2276,166.151 36,167.5C 36.3826,166.944 36.8826,166.611 37.5,166.5 Z"/></g>
<g><path style="opacity:1" fill="#7f9a8b" d="M 358.5,50.5 C 365.313,49.5088 372.313,49.1755 379.5,49.5C 379.5,86.8333 379.5,124.167 379.5,161.5C 372.313,161.825 365.313,161.491 358.5,160.5C 365.167,160.5 371.833,160.5 378.5,160.5C 378.5,123.833 378.5,87.1667 378.5,50.5C 371.833,50.5 365.167,50.5 358.5,50.5 Z"/></g>
<g><path style="opacity:1" fill="#338856" d="M 160.5,160.5 C 160.586,161.496 160.252,162.329 159.5,163C 162.333,165.18 163.333,167.847 162.5,171C 163.127,173.135 163.627,175.302 164,177.5C 169.849,183.349 173.016,190.183 173.5,198C 171.36,200.066 170.693,202.4 171.5,205C 169.312,208.022 166.645,210.522 163.5,212.5C 164.711,213.72 164.711,214.887 163.5,216C 169.576,218.059 175.576,217.892 181.5,215.5C 180.158,216.793 178.491,217.626 176.5,218C 165.505,218.5 154.505,218.667 143.5,218.5C 145.639,216.861 145.973,214.861 144.5,212.5C 145.969,210.808 146.635,208.808 146.5,206.5C 144.582,199.712 142.916,192.879 141.5,186C 142.022,185.439 142.355,184.772 142.5,184C 141.782,180.539 141.282,177.039 141,173.5C 140.682,171.939 139.849,170.772 138.5,170C 139.416,169.722 140.082,169.222 140.5,168.5C 147.011,165.658 153.678,162.991 160.5,160.5 Z"/></g>
<g><path style="opacity:1" fill="#328251" d="M 140.5,168.5 C 140.082,169.222 139.416,169.722 138.5,170C 139.849,170.772 140.682,171.939 141,173.5C 141.282,177.039 141.782,180.539 142.5,184C 142.355,184.772 142.022,185.439 141.5,186C 142.916,192.879 144.582,199.712 146.5,206.5C 146.635,208.808 145.969,210.808 144.5,212.5C 145.973,214.861 145.639,216.861 143.5,218.5C 136.833,218.5 130.167,218.5 123.5,218.5C 124.53,217.18 125.53,215.68 126.5,214C 124.343,212.915 124.176,211.749 126,210.5C 126.261,205.517 126.094,200.684 125.5,196C 127.093,190.757 128.093,185.423 128.5,180C 128.304,176.651 127.637,173.484 126.5,170.5C 131.132,169.624 135.799,168.957 140.5,168.5 Z"/></g>
<g><path style="opacity:1" fill="#297448" d="M 103.5,173.5 C 102.448,173.351 101.448,173.517 100.5,174C 102.538,175.236 103.705,177.069 104,179.5C 105.42,183.316 105.586,187.149 104.5,191C 107.233,199.582 107.567,208.082 105.5,216.5C 103.709,217.17 102.042,217.837 100.5,218.5C 93.1667,218.5 85.8333,218.5 78.5,218.5C 78.9175,217.778 79.5842,217.278 80.5,217C 80.1667,216.667 79.8333,216.333 79.5,216C 80.8112,212.646 81.6445,209.146 82,205.5C 83.3526,203.12 84.5192,200.62 85.5,198C 84.0695,195.708 83.2361,193.208 83,190.5C 82.044,191.579 81.2106,192.745 80.5,194C 80.7188,197.682 80.7188,201.516 80.5,205.5C 79.1667,205.5 77.8333,205.5 76.5,205.5C 75.8617,207.46 75.8617,209.293 76.5,211C 74.6249,213.198 74.6249,215.031 76.5,216.5C 71.8333,217.833 67.1667,217.833 62.5,216.5C 63.0253,215.808 63.6919,215.308 64.5,215C 63.8984,213.096 64.3984,211.263 66,209.5C 66.5408,202.581 67.3742,195.747 68.5,189C 67.3741,183.311 67.3741,177.644 68.5,172C 74.1667,171.333 79.8333,171.333 85.5,172C 84.5,172.333 83.5,172.667 82.5,173C 84.0995,174.066 85.0995,175.566 85.5,177.5C 85.2889,179.29 85.2889,180.956 85.5,182.5C 86.2136,179.973 86.8803,177.473 87.5,175C 86.8333,174.667 86.1667,174.333 85.5,174C 87.1012,173.727 88.6012,173.227 90,172.5C 94.5077,172.951 99.0077,173.285 103.5,173.5 Z"/></g>
<g><path style="opacity:1" fill="#2d7c4c" d="M 126.5,170.5 C 127.637,173.484 128.304,176.651 128.5,180C 128.093,185.423 127.093,190.757 125.5,196C 126.094,200.684 126.261,205.517 126,210.5C 124.176,211.749 124.343,212.915 126.5,214C 125.53,215.68 124.53,217.18 123.5,218.5C 115.833,218.5 108.167,218.5 100.5,218.5C 102.042,217.837 103.709,217.17 105.5,216.5C 107.567,208.082 107.233,199.582 104.5,191C 105.586,187.149 105.42,183.316 104,179.5C 103.705,177.069 102.538,175.236 100.5,174C 101.448,173.517 102.448,173.351 103.5,173.5C 111.255,172.985 118.922,171.985 126.5,170.5 Z"/></g>
<g><path style="opacity:1" fill="#537764" d="M 732.5,191.5 C 739.087,193.461 746.087,194.128 753.5,193.5C 746.352,194.492 739.019,194.825 731.5,194.5C 731.263,193.209 731.596,192.209 732.5,191.5 Z"/></g>
</svg>
